<svg width="1361" height="1966" viewBox="0 0 1361 1966" fill="none" xmlns="http://www.w3.org/2000/svg">
<g opacity="0.2" filter="url(#filter0_f_175_190)">
<ellipse cx="798.5" cy="983.208" rx="778.5" ry="582.208" fill="#338AF3"/>
</g>
<path d="M241.806 1375.78C243.542 1375.78 244.856 1376.83 245.749 1378.93C246.657 1381 247.112 1384.02 247.112 1387.99C247.112 1391.95 246.657 1394.98 245.749 1397.08C244.856 1399.17 243.542 1400.22 241.806 1400.22C240.086 1400.22 238.771 1399.17 237.863 1397.08C236.954 1394.98 236.5 1391.95 236.5 1387.99C236.5 1384.04 236.954 1381.03 237.863 1378.93C238.771 1376.83 240.086 1375.78 241.806 1375.78ZM238.228 1387.99C238.228 1390.8 238.406 1393 238.763 1394.59L244.167 1379.27C243.599 1378.19 242.812 1377.65 241.806 1377.65C240.686 1377.65 239.81 1378.5 239.177 1380.21C238.544 1381.89 238.228 1384.48 238.228 1387.99ZM241.806 1398.32C242.942 1398.32 243.826 1397.48 244.459 1395.8C245.091 1394.09 245.408 1391.49 245.408 1387.99C245.408 1385.01 245.205 1382.71 244.799 1381.07L239.396 1396.52C239.98 1397.72 240.783 1398.32 241.806 1398.32Z" fill="url(#paint0_linear_175_190)" fill-opacity="0.6"/>
<path d="M243.266 1437.55H246.844V1439.39H237.571V1437.55H241.708V1418.13L237.765 1421.48L237.084 1419.92L241.952 1415.64H243.266V1437.55Z" fill="url(#paint1_linear_175_190)" fill-opacity="0.6"/>
<path d="M241.806 1454.8C243.542 1454.8 244.856 1455.85 245.749 1457.95C246.657 1460.02 247.112 1463.04 247.112 1467C247.112 1470.97 246.657 1474 245.749 1476.09C244.856 1478.19 243.542 1479.24 241.806 1479.24C240.086 1479.24 238.771 1478.19 237.863 1476.09C236.954 1474 236.5 1470.97 236.5 1467C236.5 1463.06 236.954 1460.04 237.863 1457.95C238.771 1455.85 240.086 1454.8 241.806 1454.8ZM238.228 1467C238.228 1469.81 238.406 1472.02 238.763 1473.61L244.167 1458.29C243.599 1457.21 242.812 1456.67 241.806 1456.67C240.686 1456.67 239.81 1457.52 239.177 1459.22C238.544 1460.91 238.228 1463.5 238.228 1467ZM241.806 1477.34C242.942 1477.34 243.826 1476.5 244.459 1474.82C245.091 1473.11 245.408 1470.51 245.408 1467C245.408 1464.03 245.205 1461.73 244.799 1460.09L239.396 1475.54C239.98 1476.74 240.783 1477.34 241.806 1477.34Z" fill="url(#paint2_linear_175_190)" fill-opacity="0.6"/>
<path d="M243.266 1516.57H246.844V1518.4H237.571V1516.57H241.708V1497.14L237.765 1500.5L237.084 1498.94L241.952 1494.65H243.266V1516.57Z" fill="url(#paint3_linear_175_190)" fill-opacity="0.6"/>
<path d="M243.266 1556.08H246.844V1557.91H237.571V1556.08H241.708V1536.65L237.765 1540.01L237.084 1538.45L241.952 1534.16H243.266V1556.08Z" fill="url(#paint4_linear_175_190)" fill-opacity="0.6"/>
<path d="M241.806 1573.33C243.542 1573.33 244.856 1574.37 245.749 1576.47C246.657 1578.55 247.112 1581.57 247.112 1585.53C247.112 1589.49 246.657 1592.52 245.749 1594.62C244.856 1596.72 243.542 1597.77 241.806 1597.77C240.086 1597.77 238.771 1596.72 237.863 1594.62C236.954 1592.52 236.5 1589.49 236.5 1585.53C236.5 1581.59 236.954 1578.57 237.863 1576.47C238.771 1574.37 240.086 1573.33 241.806 1573.33ZM238.228 1585.53C238.228 1588.34 238.406 1590.54 238.763 1592.13L244.167 1576.82C243.599 1575.73 242.812 1575.19 241.806 1575.19C240.686 1575.19 239.81 1576.05 239.177 1577.75C238.544 1579.43 238.228 1582.03 238.228 1585.53ZM241.806 1595.87C242.942 1595.87 243.826 1595.02 244.459 1593.34C245.091 1591.64 245.408 1589.03 245.408 1585.53C245.408 1582.56 245.205 1580.25 244.799 1578.62L239.396 1594.07C239.98 1595.27 240.783 1595.87 241.806 1595.87Z" fill="url(#paint5_linear_175_190)" fill-opacity="0.6"/>
<path d="M243.266 1635.1H246.844V1636.93H237.571V1635.1H241.708V1615.67L237.765 1619.02L237.084 1617.47L241.952 1613.18H243.266V1635.1Z" fill="url(#paint6_linear_175_190)" fill-opacity="0.6"/>
<path d="M241.806 1652.34C243.542 1652.34 244.856 1653.39 245.749 1655.49C246.657 1657.56 247.112 1660.58 247.112 1664.55C247.112 1668.51 246.657 1671.54 245.749 1673.64C244.856 1675.74 243.542 1676.78 241.806 1676.78C240.086 1676.78 238.771 1675.74 237.863 1673.64C236.954 1671.54 236.5 1668.51 236.5 1664.55C236.5 1660.61 236.954 1657.59 237.863 1655.49C238.771 1653.39 240.086 1652.34 241.806 1652.34ZM238.228 1664.55C238.228 1667.36 238.406 1669.56 238.763 1671.15L244.167 1655.83C243.599 1654.75 242.812 1654.21 241.806 1654.21C240.686 1654.21 239.81 1655.06 239.177 1656.77C238.544 1658.45 238.228 1661.04 238.228 1664.55ZM241.806 1674.88C242.942 1674.88 243.826 1674.04 244.459 1672.36C245.091 1670.65 245.408 1668.05 245.408 1664.55C245.408 1661.57 245.205 1659.27 244.799 1657.63L239.396 1673.09C239.98 1674.28 240.783 1674.88 241.806 1674.88Z" fill="url(#paint7_linear_175_190)" fill-opacity="0.6"/>
<path d="M241.806 1691.85C243.542 1691.85 244.856 1692.9 245.749 1695C246.657 1697.07 247.112 1700.09 247.112 1704.06C247.112 1708.02 246.657 1711.05 245.749 1713.15C244.856 1715.24 243.542 1716.29 241.806 1716.29C240.086 1716.29 238.771 1715.24 237.863 1713.15C236.954 1711.05 236.5 1708.02 236.5 1704.06C236.5 1700.11 236.954 1697.1 237.863 1695C238.771 1692.9 240.086 1691.85 241.806 1691.85ZM238.228 1704.06C238.228 1706.87 238.406 1709.07 238.763 1710.66L244.167 1695.34C243.599 1694.26 242.812 1693.72 241.806 1693.72C240.686 1693.72 239.81 1694.57 239.177 1696.28C238.544 1697.96 238.228 1700.55 238.228 1704.06ZM241.806 1714.39C242.942 1714.39 243.826 1713.55 244.459 1711.87C245.091 1710.16 245.408 1707.56 245.408 1704.06C245.408 1701.08 245.205 1698.78 244.799 1697.14L239.396 1712.59C239.98 1713.79 240.783 1714.39 241.806 1714.39Z" fill="url(#paint8_linear_175_190)" fill-opacity="0.6"/>
<path d="M243.266 1753.62H246.844V1755.46H237.571V1753.62H241.708V1734.2L237.765 1737.55L237.084 1735.99L241.952 1731.71H243.266V1753.62Z" fill="url(#paint9_linear_175_190)" fill-opacity="0.6"/>
<path d="M241.806 1770.87C243.542 1770.87 244.856 1771.92 245.749 1774.02C246.657 1776.09 247.112 1779.11 247.112 1783.07C247.112 1787.04 246.657 1790.07 245.749 1792.16C244.856 1794.26 243.542 1795.31 241.806 1795.31C240.086 1795.31 238.771 1794.26 237.863 1792.16C236.954 1790.07 236.5 1787.04 236.5 1783.07C236.5 1779.13 236.954 1776.11 237.863 1774.02C238.771 1771.92 240.086 1770.87 241.806 1770.87ZM238.228 1783.07C238.228 1785.88 238.406 1788.09 238.763 1789.68L244.167 1774.36C243.599 1773.28 242.812 1772.74 241.806 1772.74C240.686 1772.74 239.81 1773.59 239.177 1775.29C238.544 1776.98 238.228 1779.57 238.228 1783.07ZM241.806 1793.41C242.942 1793.41 243.826 1792.57 244.459 1790.89C245.091 1789.18 245.408 1786.58 245.408 1783.07C245.408 1780.1 245.205 1777.8 244.799 1776.16L239.396 1791.61C239.98 1792.81 240.783 1793.41 241.806 1793.41Z" fill="url(#paint10_linear_175_190)" fill-opacity="0.6"/>
<path d="M243.266 1832.64H246.844V1834.47H237.571V1832.64H241.708V1813.21L237.765 1816.57L237.084 1815.01L241.952 1810.72H243.266V1832.64Z" fill="url(#paint11_linear_175_190)" fill-opacity="0.6"/>
<path d="M243.266 1872.15H246.844V1873.98H237.571V1872.15H241.708V1852.72L237.765 1856.08L237.084 1854.52L241.952 1850.23H243.266V1872.15Z" fill="url(#paint12_linear_175_190)" fill-opacity="0.6"/>
<path d="M287.007 1454.8C288.743 1454.8 290.057 1455.85 290.949 1457.95C291.858 1460.02 292.312 1463.04 292.312 1467C292.312 1470.97 291.858 1474 290.949 1476.09C290.057 1478.19 288.743 1479.24 287.007 1479.24C285.287 1479.24 283.972 1478.19 283.064 1476.09C282.155 1474 281.701 1470.97 281.701 1467C281.701 1463.06 282.155 1460.04 283.064 1457.95C283.972 1455.85 285.287 1454.8 287.007 1454.8ZM283.429 1467C283.429 1469.81 283.607 1472.02 283.964 1473.61L289.367 1458.29C288.8 1457.21 288.013 1456.67 287.007 1456.67C285.887 1456.67 285.011 1457.52 284.378 1459.22C283.745 1460.91 283.429 1463.5 283.429 1467ZM287.007 1477.34C288.142 1477.34 289.027 1476.5 289.659 1474.82C290.292 1473.11 290.609 1470.51 290.609 1467C290.609 1464.03 290.406 1461.73 290 1460.09L284.597 1475.54C285.181 1476.74 285.984 1477.34 287.007 1477.34Z" fill="url(#paint13_linear_175_190)" fill-opacity="0.6"/>
<path d="M288.467 1516.57H292.045V1518.4H282.772V1516.57H286.909V1497.14L282.966 1500.5L282.285 1498.94L287.153 1494.65H288.467V1516.57Z" fill="url(#paint14_linear_175_190)" fill-opacity="0.6"/>
<path d="M287.007 1533.82C288.743 1533.82 290.057 1534.87 290.949 1536.96C291.858 1539.04 292.312 1542.06 292.312 1546.02C292.312 1549.98 291.858 1553.02 290.949 1555.11C290.057 1557.21 288.743 1558.26 287.007 1558.26C285.287 1558.26 283.972 1557.21 283.064 1555.11C282.155 1553.02 281.701 1549.98 281.701 1546.02C281.701 1542.08 282.155 1539.06 283.064 1536.96C283.972 1534.87 285.287 1533.82 287.007 1533.82ZM283.429 1546.02C283.429 1548.83 283.607 1551.03 283.964 1552.62L289.367 1537.31C288.8 1536.23 288.013 1535.68 287.007 1535.68C285.887 1535.68 285.011 1536.54 284.378 1538.24C283.745 1539.92 283.429 1542.52 283.429 1546.02ZM287.007 1556.36C288.142 1556.36 289.027 1555.52 289.659 1553.83C290.292 1552.13 290.609 1549.52 290.609 1546.02C290.609 1543.05 290.406 1540.74 290 1539.11L284.597 1554.56C285.181 1555.76 285.984 1556.36 287.007 1556.36Z" fill="url(#paint15_linear_175_190)" fill-opacity="0.6"/>
<path d="M287.007 1573.33C288.743 1573.33 290.057 1574.37 290.949 1576.47C291.858 1578.55 292.312 1581.57 292.312 1585.53C292.312 1589.49 291.858 1592.52 290.949 1594.62C290.057 1596.72 288.743 1597.77 287.007 1597.77C285.287 1597.77 283.972 1596.72 283.064 1594.62C282.155 1592.52 281.701 1589.49 281.701 1585.53C281.701 1581.59 282.155 1578.57 283.064 1576.47C283.972 1574.37 285.287 1573.33 287.007 1573.33ZM283.429 1585.53C283.429 1588.34 283.607 1590.54 283.964 1592.13L289.367 1576.82C288.8 1575.73 288.013 1575.19 287.007 1575.19C285.887 1575.19 285.011 1576.05 284.378 1577.75C283.745 1579.43 283.429 1582.03 283.429 1585.53ZM287.007 1595.87C288.142 1595.87 289.027 1595.02 289.659 1593.34C290.292 1591.64 290.609 1589.03 290.609 1585.53C290.609 1582.56 290.406 1580.25 290 1578.62L284.597 1594.07C285.181 1595.27 285.984 1595.87 287.007 1595.87Z" fill="url(#paint16_linear_175_190)" fill-opacity="0.6"/>
<path d="M288.467 1635.1H292.045V1636.93H282.772V1635.1H286.909V1615.67L282.966 1619.02L282.285 1617.47L287.153 1613.18H288.467V1635.1Z" fill="url(#paint17_linear_175_190)" fill-opacity="0.6"/>
<path d="M287.007 1652.34C288.743 1652.34 290.057 1653.39 290.949 1655.49C291.858 1657.56 292.312 1660.58 292.312 1664.55C292.312 1668.51 291.858 1671.54 290.949 1673.64C290.057 1675.74 288.743 1676.78 287.007 1676.78C285.287 1676.78 283.972 1675.74 283.064 1673.64C282.155 1671.54 281.701 1668.51 281.701 1664.55C281.701 1660.61 282.155 1657.59 283.064 1655.49C283.972 1653.39 285.287 1652.34 287.007 1652.34ZM283.429 1664.55C283.429 1667.36 283.607 1669.56 283.964 1671.15L289.367 1655.83C288.8 1654.75 288.013 1654.21 287.007 1654.21C285.887 1654.21 285.011 1655.06 284.378 1656.77C283.745 1658.45 283.429 1661.04 283.429 1664.55ZM287.007 1674.88C288.142 1674.88 289.027 1674.04 289.659 1672.36C290.292 1670.65 290.609 1668.05 290.609 1664.55C290.609 1661.57 290.406 1659.27 290 1657.63L284.597 1673.09C285.181 1674.28 285.984 1674.88 287.007 1674.88Z" fill="url(#paint18_linear_175_190)" fill-opacity="0.6"/>
<path d="M288.467 1714.12H292.045V1715.95H282.772V1714.12H286.909V1694.69L282.966 1698.04L282.285 1696.48L287.153 1692.2H288.467V1714.12Z" fill="url(#paint19_linear_175_190)" fill-opacity="0.6"/>
<path d="M287.007 1731.36C288.743 1731.36 290.057 1732.41 290.949 1734.51C291.858 1736.58 292.312 1739.6 292.312 1743.56C292.312 1747.53 291.858 1750.56 290.949 1752.66C290.057 1754.75 288.743 1755.8 287.007 1755.8C285.287 1755.8 283.972 1754.75 283.064 1752.66C282.155 1750.56 281.701 1747.53 281.701 1743.56C281.701 1739.62 282.155 1736.6 283.064 1734.51C283.972 1732.41 285.287 1731.36 287.007 1731.36ZM283.429 1743.56C283.429 1746.38 283.607 1748.58 283.964 1750.17L289.367 1734.85C288.8 1733.77 288.013 1733.23 287.007 1733.23C285.887 1733.23 285.011 1734.08 284.378 1735.79C283.745 1737.47 283.429 1740.06 283.429 1743.56ZM287.007 1753.9C288.142 1753.9 289.027 1753.06 289.659 1751.38C290.292 1749.67 290.609 1747.07 290.609 1743.56C290.609 1740.59 290.406 1738.29 290 1736.65L284.597 1752.1C285.181 1753.3 285.984 1753.9 287.007 1753.9Z" fill="url(#paint20_linear_175_190)" fill-opacity="0.6"/>
<path d="M287.007 1770.87C288.743 1770.87 290.057 1771.92 290.949 1774.02C291.858 1776.09 292.312 1779.11 292.312 1783.07C292.312 1787.04 291.858 1790.07 290.949 1792.16C290.057 1794.26 288.743 1795.31 287.007 1795.31C285.287 1795.31 283.972 1794.26 283.064 1792.16C282.155 1790.07 281.701 1787.04 281.701 1783.07C281.701 1779.13 282.155 1776.11 283.064 1774.02C283.972 1771.92 285.287 1770.87 287.007 1770.87ZM283.429 1783.07C283.429 1785.88 283.607 1788.09 283.964 1789.68L289.367 1774.36C288.8 1773.28 288.013 1772.74 287.007 1772.74C285.887 1772.74 285.011 1773.59 284.378 1775.29C283.745 1776.98 283.429 1779.57 283.429 1783.07ZM287.007 1793.41C288.142 1793.41 289.027 1792.57 289.659 1790.89C290.292 1789.18 290.609 1786.58 290.609 1783.07C290.609 1780.1 290.406 1777.8 290 1776.16L284.597 1791.61C285.181 1792.81 285.984 1793.41 287.007 1793.41Z" fill="url(#paint21_linear_175_190)" fill-opacity="0.6"/>
<path d="M288.467 1832.64H292.045V1834.47H282.772V1832.64H286.909V1813.21L282.966 1816.57L282.285 1815.01L287.153 1810.72H288.467V1832.64Z" fill="url(#paint22_linear_175_190)" fill-opacity="0.6"/>
<path d="M287.007 1849.89C288.743 1849.89 290.057 1850.94 290.949 1853.03C291.858 1855.11 292.312 1858.13 292.312 1862.09C292.312 1866.05 291.858 1869.08 290.949 1871.18C290.057 1873.28 288.743 1874.33 287.007 1874.33C285.287 1874.33 283.972 1873.28 283.064 1871.18C282.155 1869.08 281.701 1866.05 281.701 1862.09C281.701 1858.15 282.155 1855.13 283.064 1853.03C283.972 1850.94 285.287 1849.89 287.007 1849.89ZM283.429 1862.09C283.429 1864.9 283.607 1867.1 283.964 1868.69L289.367 1853.38C288.8 1852.3 288.013 1851.75 287.007 1851.75C285.887 1851.75 285.011 1852.61 284.378 1854.31C283.745 1855.99 283.429 1858.59 283.429 1862.09ZM287.007 1872.43C288.142 1872.43 289.027 1871.59 289.659 1869.9C290.292 1868.2 290.609 1865.59 290.609 1862.09C290.609 1859.12 290.406 1856.81 290 1855.18L284.597 1870.63C285.181 1871.83 285.984 1872.43 287.007 1872.43Z" fill="url(#paint23_linear_175_190)" fill-opacity="0.6"/>
<path d="M288.467 1911.66H292.045V1913.49H282.772V1911.66H286.909V1892.23L282.966 1895.58L282.285 1894.03L287.153 1889.74H288.467V1911.66Z" fill="url(#paint24_linear_175_190)" fill-opacity="0.6"/>
<path d="M288.467 1951.17H292.045V1953H282.772V1951.17H286.909V1931.74L282.966 1935.09L282.285 1933.54L287.153 1929.25H288.467V1951.17Z" fill="url(#paint25_linear_175_190)" fill-opacity="0.6"/>
<path d="M219.205 1494.31C220.941 1494.31 222.256 1495.36 223.148 1497.45C224.057 1499.53 224.511 1502.55 224.511 1506.51C224.511 1510.48 224.057 1513.51 223.148 1515.6C222.256 1517.7 220.941 1518.75 219.205 1518.75C217.485 1518.75 216.171 1517.7 215.262 1515.6C214.354 1513.51 213.899 1510.48 213.899 1506.51C213.899 1502.57 214.354 1499.55 215.262 1497.45C216.171 1495.36 217.485 1494.31 219.205 1494.31ZM215.627 1506.51C215.627 1509.32 215.806 1511.52 216.163 1513.11L221.566 1497.8C220.998 1496.72 220.211 1496.18 219.205 1496.18C218.086 1496.18 217.21 1497.03 216.577 1498.73C215.944 1500.42 215.627 1503.01 215.627 1506.51ZM219.205 1516.85C220.341 1516.85 221.225 1516.01 221.858 1514.32C222.491 1512.62 222.807 1510.01 222.807 1506.51C222.807 1503.54 222.605 1501.23 222.199 1499.6L216.796 1515.05C217.38 1516.25 218.183 1516.85 219.205 1516.85Z" fill="url(#paint26_linear_175_190)" fill-opacity="0.6"/>
<path d="M219.205 1533.82C220.941 1533.82 222.256 1534.87 223.148 1536.96C224.057 1539.04 224.511 1542.06 224.511 1546.02C224.511 1549.98 224.057 1553.02 223.148 1555.11C222.256 1557.21 220.941 1558.26 219.205 1558.26C217.485 1558.26 216.171 1557.21 215.262 1555.11C214.354 1553.02 213.899 1549.98 213.899 1546.02C213.899 1542.08 214.354 1539.06 215.262 1536.96C216.171 1534.87 217.485 1533.82 219.205 1533.82ZM215.627 1546.02C215.627 1548.83 215.806 1551.03 216.163 1552.62L221.566 1537.31C220.998 1536.23 220.211 1535.68 219.205 1535.68C218.086 1535.68 217.21 1536.54 216.577 1538.24C215.944 1539.92 215.627 1542.52 215.627 1546.02ZM219.205 1556.36C220.341 1556.36 221.225 1555.52 221.858 1553.83C222.491 1552.13 222.807 1549.52 222.807 1546.02C222.807 1543.05 222.605 1540.74 222.199 1539.11L216.796 1554.56C217.38 1555.76 218.183 1556.36 219.205 1556.36Z" fill="url(#paint27_linear_175_190)" fill-opacity="0.6"/>
<path d="M220.666 1595.59H224.243V1597.42H214.97V1595.59H219.108V1576.16L215.165 1579.51L214.484 1577.96L219.351 1573.67H220.666V1595.59Z" fill="url(#paint28_linear_175_190)" fill-opacity="0.6"/>
<path d="M219.205 1612.83C220.941 1612.83 222.256 1613.88 223.148 1615.98C224.057 1618.05 224.511 1621.07 224.511 1625.04C224.511 1629 224.057 1632.03 223.148 1634.13C222.256 1636.23 220.941 1637.28 219.205 1637.28C217.485 1637.28 216.171 1636.23 215.262 1634.13C214.354 1632.03 213.899 1629 213.899 1625.04C213.899 1621.1 214.354 1618.08 215.262 1615.98C216.171 1613.88 217.485 1612.83 219.205 1612.83ZM215.627 1625.04C215.627 1627.85 215.806 1630.05 216.163 1631.64L221.566 1616.33C220.998 1615.24 220.211 1614.7 219.205 1614.7C218.086 1614.7 217.21 1615.55 216.577 1617.26C215.944 1618.94 215.627 1621.53 215.627 1625.04ZM219.205 1635.37C220.341 1635.37 221.225 1634.53 221.858 1632.85C222.491 1631.15 222.807 1628.54 222.807 1625.04C222.807 1622.06 222.605 1619.76 222.199 1618.12L216.796 1633.58C217.38 1634.78 218.183 1635.37 219.205 1635.37Z" fill="url(#paint29_linear_175_190)" fill-opacity="0.6"/>
<path d="M220.666 1674.61H224.243V1676.44H214.97V1674.61H219.108V1655.18L215.165 1658.53L214.484 1656.98L219.351 1652.69H220.666V1674.61Z" fill="url(#paint30_linear_175_190)" fill-opacity="0.6"/>
<path d="M220.666 1714.12H224.243V1715.95H214.97V1714.12H219.108V1694.69L215.165 1698.04L214.484 1696.48L219.351 1692.2H220.666V1714.12Z" fill="url(#paint31_linear_175_190)" fill-opacity="0.6"/>
<path d="M265.866 1437.55H269.444V1439.39H260.171V1437.55H264.309V1418.13L260.366 1421.48L259.684 1419.92L264.552 1415.64H265.866V1437.55Z" fill="url(#paint32_linear_175_190)" fill-opacity="0.6"/>
<path d="M264.406 1454.8C266.142 1454.8 267.457 1455.85 268.349 1457.95C269.258 1460.02 269.712 1463.04 269.712 1467C269.712 1470.97 269.258 1474 268.349 1476.09C267.457 1478.19 266.142 1479.24 264.406 1479.24C262.686 1479.24 261.372 1478.19 260.463 1476.09C259.555 1474 259.1 1470.97 259.1 1467C259.1 1463.06 259.555 1460.04 260.463 1457.95C261.372 1455.85 262.686 1454.8 264.406 1454.8ZM260.828 1467C260.828 1469.81 261.007 1472.02 261.364 1473.61L266.767 1458.29C266.199 1457.21 265.412 1456.67 264.406 1456.67C263.287 1456.67 262.41 1457.52 261.778 1459.22C261.145 1460.91 260.828 1463.5 260.828 1467ZM264.406 1477.34C265.542 1477.34 266.426 1476.5 267.059 1474.82C267.692 1473.11 268.008 1470.51 268.008 1467C268.008 1464.03 267.805 1461.73 267.4 1460.09L261.997 1475.54C262.581 1476.74 263.384 1477.34 264.406 1477.34Z" fill="url(#paint33_linear_175_190)" fill-opacity="0.6"/>
<path d="M265.866 1516.57H269.444V1518.4H260.171V1516.57H264.309V1497.14L260.366 1500.5L259.684 1498.94L264.552 1494.65H265.866V1516.57Z" fill="url(#paint34_linear_175_190)" fill-opacity="0.6"/>
<path d="M265.866 1556.08H269.444V1557.91H260.171V1556.08H264.309V1536.65L260.366 1540.01L259.684 1538.45L264.552 1534.16H265.866V1556.08Z" fill="url(#paint35_linear_175_190)" fill-opacity="0.6"/>
<path d="M264.406 1573.33C266.142 1573.33 267.457 1574.37 268.349 1576.47C269.258 1578.55 269.712 1581.57 269.712 1585.53C269.712 1589.49 269.258 1592.52 268.349 1594.62C267.457 1596.72 266.142 1597.77 264.406 1597.77C262.686 1597.77 261.372 1596.72 260.463 1594.62C259.555 1592.52 259.1 1589.49 259.1 1585.53C259.1 1581.59 259.555 1578.57 260.463 1576.47C261.372 1574.37 262.686 1573.33 264.406 1573.33ZM260.828 1585.53C260.828 1588.34 261.007 1590.54 261.364 1592.13L266.767 1576.82C266.199 1575.73 265.412 1575.19 264.406 1575.19C263.287 1575.19 262.41 1576.05 261.778 1577.75C261.145 1579.43 260.828 1582.03 260.828 1585.53ZM264.406 1595.87C265.542 1595.87 266.426 1595.02 267.059 1593.34C267.692 1591.64 268.008 1589.03 268.008 1585.53C268.008 1582.56 267.805 1580.25 267.4 1578.62L261.997 1594.07C262.581 1595.27 263.384 1595.87 264.406 1595.87Z" fill="url(#paint36_linear_175_190)" fill-opacity="0.6"/>
<path d="M265.866 1635.1H269.444V1636.93H260.171V1635.1H264.309V1615.67L260.366 1619.02L259.684 1617.47L264.552 1613.18H265.866V1635.1Z" fill="url(#paint37_linear_175_190)" fill-opacity="0.6"/>
<path d="M265.866 1674.61H269.444V1676.44H260.171V1674.61H264.309V1655.18L260.366 1658.53L259.684 1656.98L264.552 1652.69H265.866V1674.61Z" fill="url(#paint38_linear_175_190)" fill-opacity="0.6"/>
<path d="M264.406 1691.85C266.142 1691.85 267.457 1692.9 268.349 1695C269.258 1697.07 269.712 1700.09 269.712 1704.06C269.712 1708.02 269.258 1711.05 268.349 1713.15C267.457 1715.24 266.142 1716.29 264.406 1716.29C262.686 1716.29 261.372 1715.24 260.463 1713.15C259.555 1711.05 259.1 1708.02 259.1 1704.06C259.1 1700.11 259.555 1697.1 260.463 1695C261.372 1692.9 262.686 1691.85 264.406 1691.85ZM260.828 1704.06C260.828 1706.87 261.007 1709.07 261.364 1710.66L266.767 1695.34C266.199 1694.26 265.412 1693.72 264.406 1693.72C263.287 1693.72 262.41 1694.57 261.778 1696.28C261.145 1697.96 260.828 1700.55 260.828 1704.06ZM264.406 1714.39C265.542 1714.39 266.426 1713.55 267.059 1711.87C267.692 1710.16 268.008 1707.56 268.008 1704.06C268.008 1701.08 267.805 1698.78 267.4 1697.14L261.997 1712.59C262.581 1713.79 263.384 1714.39 264.406 1714.39Z" fill="url(#paint39_linear_175_190)" fill-opacity="0.6"/>
<path d="M265.866 1753.62H269.444V1755.46H260.171V1753.62H264.309V1734.2L260.366 1737.55L259.684 1735.99L264.552 1731.71H265.866V1753.62Z" fill="url(#paint40_linear_175_190)" fill-opacity="0.6"/>
<path d="M264.406 1770.87C266.142 1770.87 267.457 1771.92 268.349 1774.02C269.258 1776.09 269.712 1779.11 269.712 1783.07C269.712 1787.04 269.258 1790.07 268.349 1792.16C267.457 1794.26 266.142 1795.31 264.406 1795.31C262.686 1795.31 261.372 1794.26 260.463 1792.16C259.555 1790.07 259.1 1787.04 259.1 1783.07C259.1 1779.13 259.555 1776.11 260.463 1774.02C261.372 1771.92 262.686 1770.87 264.406 1770.87ZM260.828 1783.07C260.828 1785.88 261.007 1788.09 261.364 1789.68L266.767 1774.36C266.199 1773.28 265.412 1772.74 264.406 1772.74C263.287 1772.74 262.41 1773.59 261.778 1775.29C261.145 1776.98 260.828 1779.57 260.828 1783.07ZM264.406 1793.41C265.542 1793.41 266.426 1792.57 267.059 1790.89C267.692 1789.18 268.008 1786.58 268.008 1783.07C268.008 1780.1 267.805 1777.8 267.4 1776.16L261.997 1791.61C262.581 1792.81 263.384 1793.41 264.406 1793.41Z" fill="url(#paint41_linear_175_190)" fill-opacity="0.6"/>
<path d="M309.607 1415.29C311.343 1415.29 312.657 1416.34 313.55 1418.44C314.459 1420.51 314.913 1423.53 314.913 1427.49C314.913 1431.46 314.459 1434.49 313.55 1436.59C312.657 1438.68 311.343 1439.73 309.607 1439.73C307.887 1439.73 306.573 1438.68 305.664 1436.59C304.755 1434.49 304.301 1431.46 304.301 1427.49C304.301 1423.55 304.755 1420.53 305.664 1418.44C306.573 1416.34 307.887 1415.29 309.607 1415.29ZM306.029 1427.49C306.029 1430.31 306.208 1432.51 306.565 1434.1L311.968 1418.78C311.4 1417.7 310.613 1417.16 309.607 1417.16C308.487 1417.16 307.611 1418.01 306.978 1419.72C306.346 1421.4 306.029 1423.99 306.029 1427.49ZM309.607 1437.83C310.743 1437.83 311.627 1436.99 312.26 1435.31C312.893 1433.6 313.209 1431 313.209 1427.49C313.209 1424.52 313.006 1422.22 312.601 1420.58L307.197 1436.03C307.782 1437.23 308.585 1437.83 309.607 1437.83Z" fill="url(#paint42_linear_175_190)" fill-opacity="0.6"/>
<path d="M311.067 1477.06H314.645V1478.9H305.372V1477.06H309.51V1457.63L305.567 1460.99L304.885 1459.43L309.753 1455.15H311.067V1477.06Z" fill="url(#paint43_linear_175_190)" fill-opacity="0.6"/>
<path d="M311.067 1516.57H314.645V1518.4H305.372V1516.57H309.51V1497.14L305.567 1500.5L304.885 1498.94L309.753 1494.65H311.067V1516.57Z" fill="url(#paint44_linear_175_190)" fill-opacity="0.6"/>
<path d="M309.607 1533.82C311.343 1533.82 312.657 1534.87 313.55 1536.96C314.459 1539.04 314.913 1542.06 314.913 1546.02C314.913 1549.98 314.459 1553.02 313.55 1555.11C312.657 1557.21 311.343 1558.26 309.607 1558.26C307.887 1558.26 306.573 1557.21 305.664 1555.11C304.755 1553.02 304.301 1549.98 304.301 1546.02C304.301 1542.08 304.755 1539.06 305.664 1536.96C306.573 1534.87 307.887 1533.82 309.607 1533.82ZM306.029 1546.02C306.029 1548.83 306.208 1551.03 306.565 1552.62L311.968 1537.31C311.4 1536.23 310.613 1535.68 309.607 1535.68C308.487 1535.68 307.611 1536.54 306.978 1538.24C306.346 1539.92 306.029 1542.52 306.029 1546.02ZM309.607 1556.36C310.743 1556.36 311.627 1555.52 312.26 1553.83C312.893 1552.13 313.209 1549.52 313.209 1546.02C313.209 1543.05 313.006 1540.74 312.601 1539.11L307.197 1554.56C307.782 1555.76 308.585 1556.36 309.607 1556.36Z" fill="url(#paint45_linear_175_190)" fill-opacity="0.6"/>
<path d="M309.607 1573.33C311.343 1573.33 312.657 1574.37 313.55 1576.47C314.459 1578.55 314.913 1581.57 314.913 1585.53C314.913 1589.49 314.459 1592.52 313.55 1594.62C312.657 1596.72 311.343 1597.77 309.607 1597.77C307.887 1597.77 306.573 1596.72 305.664 1594.62C304.755 1592.52 304.301 1589.49 304.301 1585.53C304.301 1581.59 304.755 1578.57 305.664 1576.47C306.573 1574.37 307.887 1573.33 309.607 1573.33ZM306.029 1585.53C306.029 1588.34 306.208 1590.54 306.565 1592.13L311.968 1576.82C311.4 1575.73 310.613 1575.19 309.607 1575.19C308.487 1575.19 307.611 1576.05 306.978 1577.75C306.346 1579.43 306.029 1582.03 306.029 1585.53ZM309.607 1595.87C310.743 1595.87 311.627 1595.02 312.26 1593.34C312.893 1591.64 313.209 1589.03 313.209 1585.53C313.209 1582.56 313.006 1580.25 312.601 1578.62L307.197 1594.07C307.782 1595.27 308.585 1595.87 309.607 1595.87Z" fill="url(#paint46_linear_175_190)" fill-opacity="0.6"/>
<g opacity="0.6">
<path d="M1271.56 876.747C1273.21 876.747 1274.47 877.753 1275.32 879.766C1276.18 881.757 1276.62 884.654 1276.62 888.458C1276.62 892.262 1276.18 895.17 1275.32 897.183C1274.47 899.196 1273.21 900.202 1271.56 900.202C1269.91 900.202 1268.66 899.196 1267.79 897.183C1266.93 895.17 1266.49 892.262 1266.49 888.458C1266.49 884.676 1266.93 881.779 1267.79 879.766C1268.66 877.753 1269.91 876.747 1271.56 876.747ZM1268.14 888.458C1268.14 891.156 1268.31 893.268 1268.65 894.794L1273.81 880.098C1273.27 879.058 1272.52 878.539 1271.56 878.539C1270.49 878.539 1269.65 879.357 1269.05 880.994C1268.44 882.608 1268.14 885.096 1268.14 888.458ZM1271.56 898.377C1272.64 898.377 1273.48 897.57 1274.09 895.956C1274.69 894.319 1274.99 891.82 1274.99 888.458C1274.99 885.605 1274.8 883.393 1274.41 881.823L1269.26 896.652C1269.81 897.802 1270.58 898.377 1271.56 898.377Z" fill="url(#paint47_linear_175_190)"/>
<path d="M1272.95 936.027H1276.36V937.785H1267.52V936.027H1271.46V917.382L1267.7 920.6L1267.05 919.107L1271.7 914.994H1272.95V936.027Z" fill="url(#paint48_linear_175_190)"/>
<path d="M1271.56 952.576C1273.21 952.576 1274.47 953.583 1275.32 955.595C1276.18 957.586 1276.62 960.483 1276.62 964.287C1276.62 968.092 1276.18 971 1275.32 973.013C1274.47 975.025 1273.21 976.031 1271.56 976.031C1269.91 976.031 1268.66 975.025 1267.79 973.013C1266.93 971 1266.49 968.092 1266.49 964.287C1266.49 960.505 1266.93 957.608 1267.79 955.595C1268.66 953.583 1269.91 952.576 1271.56 952.576ZM1268.14 964.287C1268.14 966.986 1268.31 969.098 1268.65 970.624L1273.81 955.927C1273.27 954.888 1272.52 954.368 1271.56 954.368C1270.49 954.368 1269.65 955.186 1269.05 956.823C1268.44 958.437 1268.14 960.926 1268.14 964.287ZM1271.56 974.207C1272.64 974.207 1273.48 973.4 1274.09 971.785C1274.69 970.148 1274.99 967.649 1274.99 964.287C1274.99 961.434 1274.8 959.223 1274.41 957.652L1269.26 972.482C1269.81 973.632 1270.58 974.207 1271.56 974.207Z" fill="url(#paint49_linear_175_190)"/>
<path d="M1272.95 1011.86H1276.36V1013.61H1267.52V1011.86H1271.46V993.212L1267.7 996.43L1267.05 994.937L1271.7 990.823H1272.95V1011.86Z" fill="url(#paint50_linear_175_190)"/>
<path d="M1272.95 1049.77H1276.36V1051.53H1267.52V1049.77H1271.46V1031.13L1267.7 1034.34L1267.05 1032.85L1271.7 1028.74H1272.95V1049.77Z" fill="url(#paint51_linear_175_190)"/>
<path d="M1271.56 1066.32C1273.21 1066.32 1274.47 1067.33 1275.32 1069.34C1276.18 1071.33 1276.62 1074.23 1276.62 1078.03C1276.62 1081.84 1276.18 1084.74 1275.32 1086.76C1274.47 1088.77 1273.21 1089.78 1271.56 1089.78C1269.91 1089.78 1268.66 1088.77 1267.79 1086.76C1266.93 1084.74 1266.49 1081.84 1266.49 1078.03C1266.49 1074.25 1266.93 1071.35 1267.79 1069.34C1268.66 1067.33 1269.91 1066.32 1271.56 1066.32ZM1268.14 1078.03C1268.14 1080.73 1268.31 1082.84 1268.65 1084.37L1273.81 1069.67C1273.27 1068.63 1272.52 1068.11 1271.56 1068.11C1270.49 1068.11 1269.65 1068.93 1269.05 1070.57C1268.44 1072.18 1268.14 1074.67 1268.14 1078.03ZM1271.56 1087.95C1272.64 1087.95 1273.48 1087.14 1274.09 1085.53C1274.69 1083.89 1274.99 1081.39 1274.99 1078.03C1274.99 1075.18 1274.8 1072.97 1274.41 1071.4L1269.26 1086.23C1269.81 1087.38 1270.58 1087.95 1271.56 1087.95Z" fill="url(#paint52_linear_175_190)"/>
<path d="M1272.95 1125.6H1276.36V1127.36H1267.52V1125.6H1271.46V1106.96L1267.7 1110.17L1267.05 1108.68L1271.7 1104.57H1272.95V1125.6Z" fill="url(#paint53_linear_175_190)"/>
<path d="M1271.56 1142.15C1273.21 1142.15 1274.47 1143.16 1275.32 1145.17C1276.18 1147.16 1276.62 1150.06 1276.62 1153.86C1276.62 1157.67 1276.18 1160.57 1275.32 1162.59C1274.47 1164.6 1273.21 1165.61 1271.56 1165.61C1269.91 1165.61 1268.66 1164.6 1267.79 1162.59C1266.93 1160.57 1266.49 1157.67 1266.49 1153.86C1266.49 1150.08 1266.93 1147.18 1267.79 1145.17C1268.66 1143.16 1269.91 1142.15 1271.56 1142.15ZM1268.14 1153.86C1268.14 1156.56 1268.31 1158.67 1268.65 1160.2L1273.81 1145.5C1273.27 1144.46 1272.52 1143.94 1271.56 1143.94C1270.49 1143.94 1269.65 1144.76 1269.05 1146.4C1268.44 1148.01 1268.14 1150.5 1268.14 1153.86ZM1271.56 1163.78C1272.64 1163.78 1273.48 1162.97 1274.09 1161.36C1274.69 1159.72 1274.99 1157.22 1274.99 1153.86C1274.99 1151.01 1274.8 1148.8 1274.41 1147.23L1269.26 1162.06C1269.81 1163.21 1270.58 1163.78 1271.56 1163.78Z" fill="url(#paint54_linear_175_190)"/>
<path d="M1271.56 1180.06C1273.21 1180.06 1274.47 1181.07 1275.32 1183.08C1276.18 1185.07 1276.62 1187.97 1276.62 1191.78C1276.62 1195.58 1276.18 1198.49 1275.32 1200.5C1274.47 1202.51 1273.21 1203.52 1271.56 1203.52C1269.91 1203.52 1268.66 1202.51 1267.79 1200.5C1266.93 1198.49 1266.49 1195.58 1266.49 1191.78C1266.49 1187.99 1266.93 1185.1 1267.79 1183.08C1268.66 1181.07 1269.91 1180.06 1271.56 1180.06ZM1268.14 1191.78C1268.14 1194.47 1268.31 1196.59 1268.65 1198.11L1273.81 1183.42C1273.27 1182.38 1272.52 1181.86 1271.56 1181.86C1270.49 1181.86 1269.65 1182.67 1269.05 1184.31C1268.44 1185.93 1268.14 1188.41 1268.14 1191.78ZM1271.56 1201.7C1272.64 1201.7 1273.48 1200.89 1274.09 1199.27C1274.69 1197.64 1274.99 1195.14 1274.99 1191.78C1274.99 1188.92 1274.8 1186.71 1274.41 1185.14L1269.26 1199.97C1269.81 1201.12 1270.58 1201.7 1271.56 1201.7Z" fill="url(#paint55_linear_175_190)"/>
<path d="M1272.95 1239.34H1276.36V1241.1H1267.52V1239.34H1271.46V1220.7L1267.7 1223.92L1267.05 1222.43L1271.7 1218.31H1272.95V1239.34Z" fill="url(#paint56_linear_175_190)"/>
<path d="M1271.56 1255.89C1273.21 1255.89 1274.47 1256.9 1275.32 1258.91C1276.18 1260.9 1276.62 1263.8 1276.62 1267.61C1276.62 1271.41 1276.18 1274.32 1275.32 1276.33C1274.47 1278.34 1273.21 1279.35 1271.56 1279.35C1269.91 1279.35 1268.66 1278.34 1267.79 1276.33C1266.93 1274.32 1266.49 1271.41 1266.49 1267.61C1266.49 1263.82 1266.93 1260.93 1267.79 1258.91C1268.66 1256.9 1269.91 1255.89 1271.56 1255.89ZM1268.14 1267.61C1268.14 1270.3 1268.31 1272.42 1268.65 1273.94L1273.81 1259.24C1273.27 1258.21 1272.52 1257.69 1271.56 1257.69C1270.49 1257.69 1269.65 1258.5 1269.05 1260.14C1268.44 1261.76 1268.14 1264.24 1268.14 1267.61ZM1271.56 1277.52C1272.64 1277.52 1273.48 1276.72 1274.09 1275.1C1274.69 1273.47 1274.99 1270.97 1274.99 1267.61C1274.99 1264.75 1274.8 1262.54 1274.41 1260.97L1269.26 1275.8C1269.81 1276.95 1270.58 1277.52 1271.56 1277.52Z" fill="url(#paint57_linear_175_190)"/>
<path d="M1272.95 1315.17H1276.36V1316.93H1267.52V1315.17H1271.46V1296.53L1267.7 1299.75L1267.05 1298.25L1271.7 1294.14H1272.95V1315.17Z" fill="url(#paint58_linear_175_190)"/>
<path d="M1272.95 1353.09H1276.36V1354.85H1267.52V1353.09H1271.46V1334.44L1267.7 1337.66L1267.05 1336.17L1271.7 1332.06H1272.95V1353.09Z" fill="url(#paint59_linear_175_190)"/>
<path d="M1314.68 952.576C1316.33 952.576 1317.59 953.583 1318.44 955.595C1319.31 957.586 1319.74 960.483 1319.74 964.287C1319.74 968.092 1319.31 971 1318.44 973.013C1317.59 975.025 1316.33 976.031 1314.68 976.031C1313.04 976.031 1311.78 975.025 1310.92 973.013C1310.05 971 1309.62 968.092 1309.62 964.287C1309.62 960.505 1310.05 957.608 1310.92 955.595C1311.78 953.583 1313.04 952.576 1314.68 952.576ZM1311.27 964.287C1311.27 966.986 1311.44 969.098 1311.78 970.624L1316.93 955.927C1316.39 954.888 1315.64 954.368 1314.68 954.368C1313.61 954.368 1312.77 955.186 1312.17 956.823C1311.57 958.437 1311.27 960.926 1311.27 964.287ZM1314.68 974.207C1315.76 974.207 1316.61 973.4 1317.21 971.785C1317.81 970.148 1318.12 967.649 1318.12 964.287C1318.12 961.434 1317.92 959.223 1317.53 957.652L1312.38 972.482C1312.94 973.632 1313.7 974.207 1314.68 974.207Z" fill="url(#paint60_linear_175_190)"/>
<path d="M1316.07 1011.86H1319.49V1013.61H1310.64V1011.86H1314.59V993.212L1310.82 996.43L1310.17 994.937L1314.82 990.823H1316.07V1011.86Z" fill="url(#paint61_linear_175_190)"/>
<path d="M1314.68 1028.41C1316.33 1028.41 1317.59 1029.41 1318.44 1031.42C1319.31 1033.42 1319.74 1036.31 1319.74 1040.12C1319.74 1043.92 1319.31 1046.83 1318.44 1048.84C1317.59 1050.85 1316.33 1051.86 1314.68 1051.86C1313.04 1051.86 1311.78 1050.85 1310.92 1048.84C1310.05 1046.83 1309.62 1043.92 1309.62 1040.12C1309.62 1036.33 1310.05 1033.44 1310.92 1031.42C1311.78 1029.41 1313.04 1028.41 1314.68 1028.41ZM1311.27 1040.12C1311.27 1042.82 1311.44 1044.93 1311.78 1046.45L1316.93 1031.76C1316.39 1030.72 1315.64 1030.2 1314.68 1030.2C1313.61 1030.2 1312.77 1031.02 1312.17 1032.65C1311.57 1034.27 1311.27 1036.76 1311.27 1040.12ZM1314.68 1050.04C1315.76 1050.04 1316.61 1049.23 1317.21 1047.61C1317.81 1045.98 1318.12 1043.48 1318.12 1040.12C1318.12 1037.26 1317.92 1035.05 1317.53 1033.48L1312.38 1048.31C1312.94 1049.46 1313.7 1050.04 1314.68 1050.04Z" fill="url(#paint62_linear_175_190)"/>
<path d="M1314.68 1066.32C1316.33 1066.32 1317.59 1067.33 1318.44 1069.34C1319.31 1071.33 1319.74 1074.23 1319.74 1078.03C1319.74 1081.84 1319.31 1084.74 1318.44 1086.76C1317.59 1088.77 1316.33 1089.78 1314.68 1089.78C1313.04 1089.78 1311.78 1088.77 1310.92 1086.76C1310.05 1084.74 1309.62 1081.84 1309.62 1078.03C1309.62 1074.25 1310.05 1071.35 1310.92 1069.34C1311.78 1067.33 1313.04 1066.32 1314.68 1066.32ZM1311.27 1078.03C1311.27 1080.73 1311.44 1082.84 1311.78 1084.37L1316.93 1069.67C1316.39 1068.63 1315.64 1068.11 1314.68 1068.11C1313.61 1068.11 1312.77 1068.93 1312.17 1070.57C1311.57 1072.18 1311.27 1074.67 1311.27 1078.03ZM1314.68 1087.95C1315.76 1087.95 1316.61 1087.14 1317.21 1085.53C1317.81 1083.89 1318.12 1081.39 1318.12 1078.03C1318.12 1075.18 1317.92 1072.97 1317.53 1071.4L1312.38 1086.23C1312.94 1087.38 1313.7 1087.95 1314.68 1087.95Z" fill="url(#paint63_linear_175_190)"/>
<path d="M1316.07 1125.6H1319.49V1127.36H1310.64V1125.6H1314.59V1106.96L1310.82 1110.17L1310.17 1108.68L1314.82 1104.57H1316.07V1125.6Z" fill="url(#paint64_linear_175_190)"/>
<path d="M1314.68 1142.15C1316.33 1142.15 1317.59 1143.16 1318.44 1145.17C1319.31 1147.16 1319.74 1150.06 1319.74 1153.86C1319.74 1157.67 1319.31 1160.57 1318.44 1162.59C1317.59 1164.6 1316.33 1165.61 1314.68 1165.61C1313.04 1165.61 1311.78 1164.6 1310.92 1162.59C1310.05 1160.57 1309.62 1157.67 1309.62 1153.86C1309.62 1150.08 1310.05 1147.18 1310.92 1145.17C1311.78 1143.16 1313.04 1142.15 1314.68 1142.15ZM1311.27 1153.86C1311.27 1156.56 1311.44 1158.67 1311.78 1160.2L1316.93 1145.5C1316.39 1144.46 1315.64 1143.94 1314.68 1143.94C1313.61 1143.94 1312.77 1144.76 1312.17 1146.4C1311.57 1148.01 1311.27 1150.5 1311.27 1153.86ZM1314.68 1163.78C1315.76 1163.78 1316.61 1162.97 1317.21 1161.36C1317.81 1159.72 1318.12 1157.22 1318.12 1153.86C1318.12 1151.01 1317.92 1148.8 1317.53 1147.23L1312.38 1162.06C1312.94 1163.21 1313.7 1163.78 1314.68 1163.78Z" fill="url(#paint65_linear_175_190)"/>
<path d="M1316.07 1201.43H1319.49V1203.19H1310.64V1201.43H1314.59V1182.79L1310.82 1186L1310.17 1184.51L1314.82 1180.4H1316.07V1201.43Z" fill="url(#paint66_linear_175_190)"/>
<path d="M1314.68 1217.98C1316.33 1217.98 1317.59 1218.99 1318.44 1221C1319.31 1222.99 1319.74 1225.89 1319.74 1229.69C1319.74 1233.49 1319.31 1236.4 1318.44 1238.42C1317.59 1240.43 1316.33 1241.43 1314.68 1241.43C1313.04 1241.43 1311.78 1240.43 1310.92 1238.42C1310.05 1236.4 1309.62 1233.49 1309.62 1229.69C1309.62 1225.91 1310.05 1223.01 1310.92 1221C1311.78 1218.99 1313.04 1217.98 1314.68 1217.98ZM1311.27 1229.69C1311.27 1232.39 1311.44 1234.5 1311.78 1236.03L1316.93 1221.33C1316.39 1220.29 1315.64 1219.77 1314.68 1219.77C1313.61 1219.77 1312.77 1220.59 1312.17 1222.23C1311.57 1223.84 1311.27 1226.33 1311.27 1229.69ZM1314.68 1239.61C1315.76 1239.61 1316.61 1238.8 1317.21 1237.19C1317.81 1235.55 1318.12 1233.05 1318.12 1229.69C1318.12 1226.84 1317.92 1224.63 1317.53 1223.06L1312.38 1237.88C1312.94 1239.03 1313.7 1239.61 1314.68 1239.61Z" fill="url(#paint67_linear_175_190)"/>
<path d="M1314.68 1255.89C1316.33 1255.89 1317.59 1256.9 1318.44 1258.91C1319.31 1260.9 1319.74 1263.8 1319.74 1267.61C1319.74 1271.41 1319.31 1274.32 1318.44 1276.33C1317.59 1278.34 1316.33 1279.35 1314.68 1279.35C1313.04 1279.35 1311.78 1278.34 1310.92 1276.33C1310.05 1274.32 1309.62 1271.41 1309.62 1267.61C1309.62 1263.82 1310.05 1260.93 1310.92 1258.91C1311.78 1256.9 1313.04 1255.89 1314.68 1255.89ZM1311.27 1267.61C1311.27 1270.3 1311.44 1272.42 1311.78 1273.94L1316.93 1259.24C1316.39 1258.21 1315.64 1257.69 1314.68 1257.69C1313.61 1257.69 1312.77 1258.5 1312.17 1260.14C1311.57 1261.76 1311.27 1264.24 1311.27 1267.61ZM1314.68 1277.52C1315.76 1277.52 1316.61 1276.72 1317.21 1275.1C1317.81 1273.47 1318.12 1270.97 1318.12 1267.61C1318.12 1264.75 1317.92 1262.54 1317.53 1260.97L1312.38 1275.8C1312.94 1276.95 1313.7 1277.52 1314.68 1277.52Z" fill="url(#paint68_linear_175_190)"/>
<path d="M1316.07 1315.17H1319.49V1316.93H1310.64V1315.17H1314.59V1296.53L1310.82 1299.75L1310.17 1298.25L1314.82 1294.14H1316.07V1315.17Z" fill="url(#paint69_linear_175_190)"/>
<path d="M1314.68 1331.72C1316.33 1331.72 1317.59 1332.73 1318.44 1334.74C1319.31 1336.73 1319.74 1339.63 1319.74 1343.43C1319.74 1347.24 1319.31 1350.15 1318.44 1352.16C1317.59 1354.17 1316.33 1355.18 1314.68 1355.18C1313.04 1355.18 1311.78 1354.17 1310.92 1352.16C1310.05 1350.15 1309.62 1347.24 1309.62 1343.43C1309.62 1339.65 1310.05 1336.76 1310.92 1334.74C1311.78 1332.73 1313.04 1331.72 1314.68 1331.72ZM1311.27 1343.43C1311.27 1346.13 1311.44 1348.24 1311.78 1349.77L1316.93 1335.07C1316.39 1334.03 1315.64 1333.52 1314.68 1333.52C1313.61 1333.52 1312.77 1334.33 1312.17 1335.97C1311.57 1337.58 1311.27 1340.07 1311.27 1343.43ZM1314.68 1353.35C1315.76 1353.35 1316.61 1352.55 1317.21 1350.93C1317.81 1349.3 1318.12 1346.8 1318.12 1343.43C1318.12 1340.58 1317.92 1338.37 1317.53 1336.8L1312.38 1351.63C1312.94 1352.78 1313.7 1353.35 1314.68 1353.35Z" fill="url(#paint70_linear_175_190)"/>
<path d="M1316.07 1391H1319.49V1392.76H1310.64V1391H1314.59V1372.36L1310.82 1375.58L1310.17 1374.08L1314.82 1369.97H1316.07V1391Z" fill="url(#paint71_linear_175_190)"/>
<path d="M1316.07 1428.92H1319.49V1430.68H1310.64V1428.92H1314.59V1410.27L1310.82 1413.49L1310.17 1412L1314.82 1407.88H1316.07V1428.92Z" fill="url(#paint72_linear_175_190)"/>
<path d="M1249.99 990.491C1251.65 990.491 1252.9 991.498 1253.76 993.51C1254.62 995.501 1255.06 998.398 1255.06 1002.2C1255.06 1006.01 1254.62 1008.91 1253.76 1010.93C1252.9 1012.94 1251.65 1013.95 1249.99 1013.95C1248.35 1013.95 1247.1 1012.94 1246.23 1010.93C1245.37 1008.91 1244.93 1006.01 1244.93 1002.2C1244.93 998.42 1245.37 995.523 1246.23 993.51C1247.1 991.498 1248.35 990.491 1249.99 990.491ZM1246.58 1002.2C1246.58 1004.9 1246.75 1007.01 1247.09 1008.54L1252.25 993.842C1251.71 992.802 1250.95 992.283 1249.99 992.283C1248.93 992.283 1248.09 993.101 1247.49 994.738C1246.88 996.352 1246.58 998.84 1246.58 1002.2ZM1249.99 1012.12C1251.08 1012.12 1251.92 1011.31 1252.53 1009.7C1253.13 1008.06 1253.43 1005.56 1253.43 1002.2C1253.43 999.349 1253.24 997.137 1252.85 995.567L1247.7 1010.4C1248.25 1011.55 1249.02 1012.12 1249.99 1012.12Z" fill="url(#paint73_linear_175_190)"/>
<path d="M1249.99 1028.41C1251.65 1028.41 1252.9 1029.41 1253.76 1031.42C1254.62 1033.42 1255.06 1036.31 1255.06 1040.12C1255.06 1043.92 1254.62 1046.83 1253.76 1048.84C1252.9 1050.85 1251.65 1051.86 1249.99 1051.86C1248.35 1051.86 1247.1 1050.85 1246.23 1048.84C1245.37 1046.83 1244.93 1043.92 1244.93 1040.12C1244.93 1036.33 1245.37 1033.44 1246.23 1031.42C1247.1 1029.41 1248.35 1028.41 1249.99 1028.41ZM1246.58 1040.12C1246.58 1042.82 1246.75 1044.93 1247.09 1046.45L1252.25 1031.76C1251.71 1030.72 1250.95 1030.2 1249.99 1030.2C1248.93 1030.2 1248.09 1031.02 1247.49 1032.65C1246.88 1034.27 1246.58 1036.76 1246.58 1040.12ZM1249.99 1050.04C1251.08 1050.04 1251.92 1049.23 1252.53 1047.61C1253.13 1045.98 1253.43 1043.48 1253.43 1040.12C1253.43 1037.26 1253.24 1035.05 1252.85 1033.48L1247.7 1048.31C1248.25 1049.46 1249.02 1050.04 1249.99 1050.04Z" fill="url(#paint74_linear_175_190)"/>
<path d="M1251.39 1087.69H1254.8V1089.44H1245.95V1087.69H1249.9V1069.04L1246.14 1072.26L1245.49 1070.77L1250.13 1066.65H1251.39V1087.69Z" fill="url(#paint75_linear_175_190)"/>
<path d="M1249.99 1104.24C1251.65 1104.24 1252.9 1105.24 1253.76 1107.25C1254.62 1109.24 1255.06 1112.14 1255.06 1115.95C1255.06 1119.75 1254.62 1122.66 1253.76 1124.67C1252.9 1126.68 1251.65 1127.69 1249.99 1127.69C1248.35 1127.69 1247.1 1126.68 1246.23 1124.67C1245.37 1122.66 1244.93 1119.75 1244.93 1115.95C1244.93 1112.16 1245.37 1109.27 1246.23 1107.25C1247.1 1105.24 1248.35 1104.24 1249.99 1104.24ZM1246.58 1115.95C1246.58 1118.64 1246.75 1120.76 1247.09 1122.28L1252.25 1107.59C1251.71 1106.55 1250.95 1106.03 1249.99 1106.03C1248.93 1106.03 1248.09 1106.85 1247.49 1108.48C1246.88 1110.1 1246.58 1112.58 1246.58 1115.95ZM1249.99 1125.87C1251.08 1125.87 1251.92 1125.06 1252.53 1123.44C1253.13 1121.81 1253.43 1119.31 1253.43 1115.95C1253.43 1113.09 1253.24 1110.88 1252.85 1109.31L1247.7 1124.14C1248.25 1125.29 1249.02 1125.87 1249.99 1125.87Z" fill="url(#paint76_linear_175_190)"/>
<path d="M1251.39 1163.52H1254.8V1165.27H1245.95V1163.52H1249.9V1144.87L1246.14 1148.09L1245.49 1146.6L1250.13 1142.48H1251.39V1163.52Z" fill="url(#paint77_linear_175_190)"/>
<path d="M1251.39 1201.43H1254.8V1203.19H1245.95V1201.43H1249.9V1182.79L1246.14 1186L1245.49 1184.51L1250.13 1180.4H1251.39V1201.43Z" fill="url(#paint78_linear_175_190)"/>
<path d="M1294.51 936.027H1297.92V937.785H1289.08V936.027H1293.02V917.382L1289.26 920.6L1288.61 919.107L1293.26 914.994H1294.51V936.027Z" fill="url(#paint79_linear_175_190)"/>
<path d="M1293.12 952.576C1294.77 952.576 1296.03 953.583 1296.88 955.595C1297.75 957.586 1298.18 960.483 1298.18 964.287C1298.18 968.092 1297.75 971 1296.88 973.013C1296.03 975.025 1294.77 976.031 1293.12 976.031C1291.48 976.031 1290.22 975.025 1289.36 973.013C1288.49 971 1288.06 968.092 1288.06 964.287C1288.06 960.505 1288.49 957.608 1289.36 955.595C1290.22 953.583 1291.48 952.576 1293.12 952.576ZM1289.7 964.287C1289.7 966.986 1289.87 969.098 1290.21 970.624L1295.37 955.927C1294.83 954.888 1294.08 954.368 1293.12 954.368C1292.05 954.368 1291.21 955.186 1290.61 956.823C1290.01 958.437 1289.7 960.926 1289.7 964.287ZM1293.12 974.207C1294.2 974.207 1295.04 973.4 1295.65 971.785C1296.25 970.148 1296.55 967.649 1296.55 964.287C1296.55 961.434 1296.36 959.223 1295.97 957.652L1290.82 972.482C1291.38 973.632 1292.14 974.207 1293.12 974.207Z" fill="url(#paint80_linear_175_190)"/>
<path d="M1294.51 1011.86H1297.92V1013.61H1289.08V1011.86H1293.02V993.212L1289.26 996.43L1288.61 994.937L1293.26 990.823H1294.51V1011.86Z" fill="url(#paint81_linear_175_190)"/>
<path d="M1294.51 1049.77H1297.92V1051.53H1289.08V1049.77H1293.02V1031.13L1289.26 1034.34L1288.61 1032.85L1293.26 1028.74H1294.51V1049.77Z" fill="url(#paint82_linear_175_190)"/>
<path d="M1293.12 1066.32C1294.77 1066.32 1296.03 1067.33 1296.88 1069.34C1297.75 1071.33 1298.18 1074.23 1298.18 1078.03C1298.18 1081.84 1297.75 1084.74 1296.88 1086.76C1296.03 1088.77 1294.77 1089.78 1293.12 1089.78C1291.48 1089.78 1290.22 1088.77 1289.36 1086.76C1288.49 1084.74 1288.06 1081.84 1288.06 1078.03C1288.06 1074.25 1288.49 1071.35 1289.36 1069.34C1290.22 1067.33 1291.48 1066.32 1293.12 1066.32ZM1289.7 1078.03C1289.7 1080.73 1289.87 1082.84 1290.21 1084.37L1295.37 1069.67C1294.83 1068.63 1294.08 1068.11 1293.12 1068.11C1292.05 1068.11 1291.21 1068.93 1290.61 1070.57C1290.01 1072.18 1289.7 1074.67 1289.7 1078.03ZM1293.12 1087.95C1294.2 1087.95 1295.04 1087.14 1295.65 1085.53C1296.25 1083.89 1296.55 1081.39 1296.55 1078.03C1296.55 1075.18 1296.36 1072.97 1295.97 1071.4L1290.82 1086.23C1291.38 1087.38 1292.14 1087.95 1293.12 1087.95Z" fill="url(#paint83_linear_175_190)"/>
<path d="M1294.51 1125.6H1297.92V1127.36H1289.08V1125.6H1293.02V1106.96L1289.26 1110.17L1288.61 1108.68L1293.26 1104.57H1294.51V1125.6Z" fill="url(#paint84_linear_175_190)"/>
<path d="M1294.51 1163.52H1297.92V1165.27H1289.08V1163.52H1293.02V1144.87L1289.26 1148.09L1288.61 1146.6L1293.26 1142.48H1294.51V1163.52Z" fill="url(#paint85_linear_175_190)"/>
<path d="M1293.12 1180.06C1294.77 1180.06 1296.03 1181.07 1296.88 1183.08C1297.75 1185.07 1298.18 1187.97 1298.18 1191.78C1298.18 1195.58 1297.75 1198.49 1296.88 1200.5C1296.03 1202.51 1294.77 1203.52 1293.12 1203.52C1291.48 1203.52 1290.22 1202.51 1289.36 1200.5C1288.49 1198.49 1288.06 1195.58 1288.06 1191.78C1288.06 1187.99 1288.49 1185.1 1289.36 1183.08C1290.22 1181.07 1291.48 1180.06 1293.12 1180.06ZM1289.7 1191.78C1289.7 1194.47 1289.87 1196.59 1290.21 1198.11L1295.37 1183.42C1294.83 1182.38 1294.08 1181.86 1293.12 1181.86C1292.05 1181.86 1291.21 1182.67 1290.61 1184.31C1290.01 1185.93 1289.7 1188.41 1289.7 1191.78ZM1293.12 1201.7C1294.2 1201.7 1295.04 1200.89 1295.65 1199.27C1296.25 1197.64 1296.55 1195.14 1296.55 1191.78C1296.55 1188.92 1296.36 1186.71 1295.97 1185.14L1290.82 1199.97C1291.38 1201.12 1292.14 1201.7 1293.12 1201.7Z" fill="url(#paint86_linear_175_190)"/>
<path d="M1294.51 1239.34H1297.92V1241.1H1289.08V1239.34H1293.02V1220.7L1289.26 1223.92L1288.61 1222.43L1293.26 1218.31H1294.51V1239.34Z" fill="url(#paint87_linear_175_190)"/>
<path d="M1293.12 1255.89C1294.77 1255.89 1296.03 1256.9 1296.88 1258.91C1297.75 1260.9 1298.18 1263.8 1298.18 1267.61C1298.18 1271.41 1297.75 1274.32 1296.88 1276.33C1296.03 1278.34 1294.77 1279.35 1293.12 1279.35C1291.48 1279.35 1290.22 1278.34 1289.36 1276.33C1288.49 1274.32 1288.06 1271.41 1288.06 1267.61C1288.06 1263.82 1288.49 1260.93 1289.36 1258.91C1290.22 1256.9 1291.48 1255.89 1293.12 1255.89ZM1289.7 1267.61C1289.7 1270.3 1289.87 1272.42 1290.21 1273.94L1295.37 1259.24C1294.83 1258.21 1294.08 1257.69 1293.12 1257.69C1292.05 1257.69 1291.21 1258.5 1290.61 1260.14C1290.01 1261.76 1289.7 1264.24 1289.7 1267.61ZM1293.12 1277.52C1294.2 1277.52 1295.04 1276.72 1295.65 1275.1C1296.25 1273.47 1296.55 1270.97 1296.55 1267.61C1296.55 1264.75 1296.36 1262.54 1295.97 1260.97L1290.82 1275.8C1291.38 1276.95 1292.14 1277.52 1293.12 1277.52Z" fill="url(#paint88_linear_175_190)"/>
<path d="M1336.24 914.662C1337.9 914.662 1339.15 915.668 1340 917.681C1340.87 919.671 1341.3 922.569 1341.3 926.373C1341.3 930.177 1340.87 933.085 1340 935.098C1339.15 937.11 1337.9 938.117 1336.24 938.117C1334.6 938.117 1333.35 937.11 1332.48 935.098C1331.61 933.085 1331.18 930.177 1331.18 926.373C1331.18 922.591 1331.61 919.693 1332.48 917.681C1333.35 915.668 1334.6 914.662 1336.24 914.662ZM1332.83 926.373C1332.83 929.071 1333 931.183 1333.34 932.709L1338.49 918.012C1337.95 916.973 1337.2 916.453 1336.24 916.453C1335.17 916.453 1334.34 917.272 1333.73 918.908C1333.13 920.523 1332.83 923.011 1332.83 926.373ZM1336.24 936.292C1337.32 936.292 1338.17 935.485 1338.77 933.87C1339.37 932.234 1339.68 929.734 1339.68 926.373C1339.68 923.52 1339.48 921.308 1339.1 919.738L1333.94 934.567C1334.5 935.717 1335.26 936.292 1336.24 936.292Z" fill="url(#paint89_linear_175_190)"/>
<path d="M1337.63 973.941H1341.05V975.7H1332.2V973.941H1336.15V955.297L1332.39 958.515L1331.74 957.022L1336.38 952.908H1337.63V973.941Z" fill="url(#paint90_linear_175_190)"/>
<path d="M1337.63 1011.86H1341.05V1013.61H1332.2V1011.86H1336.15V993.212L1332.39 996.43L1331.74 994.937L1336.38 990.823H1337.63V1011.86Z" fill="url(#paint91_linear_175_190)"/>
<path d="M1336.24 1028.41C1337.9 1028.41 1339.15 1029.41 1340 1031.42C1340.87 1033.42 1341.3 1036.31 1341.3 1040.12C1341.3 1043.92 1340.87 1046.83 1340 1048.84C1339.15 1050.85 1337.9 1051.86 1336.24 1051.86C1334.6 1051.86 1333.35 1050.85 1332.48 1048.84C1331.61 1046.83 1331.18 1043.92 1331.18 1040.12C1331.18 1036.33 1331.61 1033.44 1332.48 1031.42C1333.35 1029.41 1334.6 1028.41 1336.24 1028.41ZM1332.83 1040.12C1332.83 1042.82 1333 1044.93 1333.34 1046.45L1338.49 1031.76C1337.95 1030.72 1337.2 1030.2 1336.24 1030.2C1335.17 1030.2 1334.34 1031.02 1333.73 1032.65C1333.13 1034.27 1332.83 1036.76 1332.83 1040.12ZM1336.24 1050.04C1337.32 1050.04 1338.17 1049.23 1338.77 1047.61C1339.37 1045.98 1339.68 1043.48 1339.68 1040.12C1339.68 1037.26 1339.48 1035.05 1339.1 1033.48L1333.94 1048.31C1334.5 1049.46 1335.26 1050.04 1336.24 1050.04Z" fill="url(#paint92_linear_175_190)"/>
<path d="M1336.24 1066.32C1337.9 1066.32 1339.15 1067.33 1340 1069.34C1340.87 1071.33 1341.3 1074.23 1341.3 1078.03C1341.3 1081.84 1340.87 1084.74 1340 1086.76C1339.15 1088.77 1337.9 1089.78 1336.24 1089.78C1334.6 1089.78 1333.35 1088.77 1332.48 1086.76C1331.61 1084.74 1331.18 1081.84 1331.18 1078.03C1331.18 1074.25 1331.61 1071.35 1332.48 1069.34C1333.35 1067.33 1334.6 1066.32 1336.24 1066.32ZM1332.83 1078.03C1332.83 1080.73 1333 1082.84 1333.34 1084.37L1338.49 1069.67C1337.95 1068.63 1337.2 1068.11 1336.24 1068.11C1335.17 1068.11 1334.34 1068.93 1333.73 1070.57C1333.13 1072.18 1332.83 1074.67 1332.83 1078.03ZM1336.24 1087.95C1337.32 1087.95 1338.17 1087.14 1338.77 1085.53C1339.37 1083.89 1339.68 1081.39 1339.68 1078.03C1339.68 1075.18 1339.48 1072.97 1339.1 1071.4L1333.94 1086.23C1334.5 1087.38 1335.26 1087.95 1336.24 1087.95Z" fill="url(#paint93_linear_175_190)"/>
</g>
<defs>
<filter id="filter0_f_175_190" x="-380.19" y="0.809998" width="2357.38" height="1964.8" filterUnits="userSpaceOnUse" color-interpolation-filters="sRGB">
<feFlood flood-opacity="0" result="BackgroundImageFix"/>
<feBlend mode="normal" in="SourceGraphic" in2="BackgroundImageFix" result="shape"/>
<feGaussianBlur stdDeviation="200.095" result="effect1_foregroundBlur_175_190"/>
</filter>
<linearGradient id="paint0_linear_175_190" x1="264.406" y1="1375.78" x2="264.406" y2="1893.75" gradientUnits="userSpaceOnUse">
<stop stop-color="#F7DD43"/>
<stop offset="1" stop-color="#F7DD43" stop-opacity="0"/>
</linearGradient>
<linearGradient id="paint1_linear_175_190" x1="264.406" y1="1375.78" x2="264.406" y2="1893.75" gradientUnits="userSpaceOnUse">
<stop stop-color="#F7DD43"/>
<stop offset="1" stop-color="#F7DD43" stop-opacity="0"/>
</linearGradient>
<linearGradient id="paint2_linear_175_190" x1="264.406" y1="1375.78" x2="264.406" y2="1893.75" gradientUnits="userSpaceOnUse">
<stop stop-color="#F7DD43"/>
<stop offset="1" stop-color="#F7DD43" stop-opacity="0"/>
</linearGradient>
<linearGradient id="paint3_linear_175_190" x1="264.406" y1="1375.78" x2="264.406" y2="1893.75" gradientUnits="userSpaceOnUse">
<stop stop-color="#F7DD43"/>
<stop offset="1" stop-color="#F7DD43" stop-opacity="0"/>
</linearGradient>
<linearGradient id="paint4_linear_175_190" x1="264.406" y1="1375.78" x2="264.406" y2="1893.75" gradientUnits="userSpaceOnUse">
<stop stop-color="#F7DD43"/>
<stop offset="1" stop-color="#F7DD43" stop-opacity="0"/>
</linearGradient>
<linearGradient id="paint5_linear_175_190" x1="264.406" y1="1375.78" x2="264.406" y2="1893.75" gradientUnits="userSpaceOnUse">
<stop stop-color="#F7DD43"/>
<stop offset="1" stop-color="#F7DD43" stop-opacity="0"/>
</linearGradient>
<linearGradient id="paint6_linear_175_190" x1="264.406" y1="1375.78" x2="264.406" y2="1893.75" gradientUnits="userSpaceOnUse">
<stop stop-color="#F7DD43"/>
<stop offset="1" stop-color="#F7DD43" stop-opacity="0"/>
</linearGradient>
<linearGradient id="paint7_linear_175_190" x1="264.406" y1="1375.78" x2="264.406" y2="1893.75" gradientUnits="userSpaceOnUse">
<stop stop-color="#F7DD43"/>
<stop offset="1" stop-color="#F7DD43" stop-opacity="0"/>
</linearGradient>
<linearGradient id="paint8_linear_175_190" x1="264.406" y1="1375.78" x2="264.406" y2="1893.75" gradientUnits="userSpaceOnUse">
<stop stop-color="#F7DD43"/>
<stop offset="1" stop-color="#F7DD43" stop-opacity="0"/>
</linearGradient>
<linearGradient id="paint9_linear_175_190" x1="264.406" y1="1375.78" x2="264.406" y2="1893.75" gradientUnits="userSpaceOnUse">
<stop stop-color="#F7DD43"/>
<stop offset="1" stop-color="#F7DD43" stop-opacity="0"/>
</linearGradient>
<linearGradient id="paint10_linear_175_190" x1="264.406" y1="1375.78" x2="264.406" y2="1893.75" gradientUnits="userSpaceOnUse">
<stop stop-color="#F7DD43"/>
<stop offset="1" stop-color="#F7DD43" stop-opacity="0"/>
</linearGradient>
<linearGradient id="paint11_linear_175_190" x1="264.406" y1="1375.78" x2="264.406" y2="1893.75" gradientUnits="userSpaceOnUse">
<stop stop-color="#F7DD43"/>
<stop offset="1" stop-color="#F7DD43" stop-opacity="0"/>
</linearGradient>
<linearGradient id="paint12_linear_175_190" x1="264.406" y1="1375.78" x2="264.406" y2="1893.75" gradientUnits="userSpaceOnUse">
<stop stop-color="#F7DD43"/>
<stop offset="1" stop-color="#F7DD43" stop-opacity="0"/>
</linearGradient>
<linearGradient id="paint13_linear_175_190" x1="264.406" y1="1375.78" x2="264.406" y2="1893.75" gradientUnits="userSpaceOnUse">
<stop stop-color="#F7DD43"/>
<stop offset="1" stop-color="#F7DD43" stop-opacity="0"/>
</linearGradient>
<linearGradient id="paint14_linear_175_190" x1="264.406" y1="1375.78" x2="264.406" y2="1893.75" gradientUnits="userSpaceOnUse">
<stop stop-color="#F7DD43"/>
<stop offset="1" stop-color="#F7DD43" stop-opacity="0"/>
</linearGradient>
<linearGradient id="paint15_linear_175_190" x1="264.406" y1="1375.78" x2="264.406" y2="1893.75" gradientUnits="userSpaceOnUse">
<stop stop-color="#F7DD43"/>
<stop offset="1" stop-color="#F7DD43" stop-opacity="0"/>
</linearGradient>
<linearGradient id="paint16_linear_175_190" x1="264.406" y1="1375.78" x2="264.406" y2="1893.75" gradientUnits="userSpaceOnUse">
<stop stop-color="#F7DD43"/>
<stop offset="1" stop-color="#F7DD43" stop-opacity="0"/>
</linearGradient>
<linearGradient id="paint17_linear_175_190" x1="264.406" y1="1375.78" x2="264.406" y2="1893.75" gradientUnits="userSpaceOnUse">
<stop stop-color="#F7DD43"/>
<stop offset="1" stop-color="#F7DD43" stop-opacity="0"/>
</linearGradient>
<linearGradient id="paint18_linear_175_190" x1="264.406" y1="1375.78" x2="264.406" y2="1893.75" gradientUnits="userSpaceOnUse">
<stop stop-color="#F7DD43"/>
<stop offset="1" stop-color="#F7DD43" stop-opacity="0"/>
</linearGradient>
<linearGradient id="paint19_linear_175_190" x1="264.406" y1="1375.78" x2="264.406" y2="1893.75" gradientUnits="userSpaceOnUse">
<stop stop-color="#F7DD43"/>
<stop offset="1" stop-color="#F7DD43" stop-opacity="0"/>
</linearGradient>
<linearGradient id="paint20_linear_175_190" x1="264.406" y1="1375.78" x2="264.406" y2="1893.75" gradientUnits="userSpaceOnUse">
<stop stop-color="#F7DD43"/>
<stop offset="1" stop-color="#F7DD43" stop-opacity="0"/>
</linearGradient>
<linearGradient id="paint21_linear_175_190" x1="264.406" y1="1375.78" x2="264.406" y2="1893.75" gradientUnits="userSpaceOnUse">
<stop stop-color="#F7DD43"/>
<stop offset="1" stop-color="#F7DD43" stop-opacity="0"/>
</linearGradient>
<linearGradient id="paint22_linear_175_190" x1="264.406" y1="1375.78" x2="264.406" y2="1893.75" gradientUnits="userSpaceOnUse">
<stop stop-color="#F7DD43"/>
<stop offset="1" stop-color="#F7DD43" stop-opacity="0"/>
</linearGradient>
<linearGradient id="paint23_linear_175_190" x1="264.406" y1="1375.78" x2="264.406" y2="1893.75" gradientUnits="userSpaceOnUse">
<stop stop-color="#F7DD43"/>
<stop offset="1" stop-color="#F7DD43" stop-opacity="0"/>
</linearGradient>
<linearGradient id="paint24_linear_175_190" x1="264.406" y1="1375.78" x2="264.406" y2="1893.75" gradientUnits="userSpaceOnUse">
<stop stop-color="#F7DD43"/>
<stop offset="1" stop-color="#F7DD43" stop-opacity="0"/>
</linearGradient>
<linearGradient id="paint25_linear_175_190" x1="264.406" y1="1375.78" x2="264.406" y2="1893.75" gradientUnits="userSpaceOnUse">
<stop stop-color="#F7DD43"/>
<stop offset="1" stop-color="#F7DD43" stop-opacity="0"/>
</linearGradient>
<linearGradient id="paint26_linear_175_190" x1="264.406" y1="1375.78" x2="264.406" y2="1893.75" gradientUnits="userSpaceOnUse">
<stop stop-color="#F7DD43"/>
<stop offset="1" stop-color="#F7DD43" stop-opacity="0"/>
</linearGradient>
<linearGradient id="paint27_linear_175_190" x1="264.406" y1="1375.78" x2="264.406" y2="1893.75" gradientUnits="userSpaceOnUse">
<stop stop-color="#F7DD43"/>
<stop offset="1" stop-color="#F7DD43" stop-opacity="0"/>
</linearGradient>
<linearGradient id="paint28_linear_175_190" x1="264.406" y1="1375.78" x2="264.406" y2="1893.75" gradientUnits="userSpaceOnUse">
<stop stop-color="#F7DD43"/>
<stop offset="1" stop-color="#F7DD43" stop-opacity="0"/>
</linearGradient>
<linearGradient id="paint29_linear_175_190" x1="264.406" y1="1375.78" x2="264.406" y2="1893.75" gradientUnits="userSpaceOnUse">
<stop stop-color="#F7DD43"/>
<stop offset="1" stop-color="#F7DD43" stop-opacity="0"/>
</linearGradient>
<linearGradient id="paint30_linear_175_190" x1="264.406" y1="1375.78" x2="264.406" y2="1893.75" gradientUnits="userSpaceOnUse">
<stop stop-color="#F7DD43"/>
<stop offset="1" stop-color="#F7DD43" stop-opacity="0"/>
</linearGradient>
<linearGradient id="paint31_linear_175_190" x1="264.406" y1="1375.78" x2="264.406" y2="1893.75" gradientUnits="userSpaceOnUse">
<stop stop-color="#F7DD43"/>
<stop offset="1" stop-color="#F7DD43" stop-opacity="0"/>
</linearGradient>
<linearGradient id="paint32_linear_175_190" x1="264.406" y1="1375.78" x2="264.406" y2="1893.75" gradientUnits="userSpaceOnUse">
<stop stop-color="#F7DD43"/>
<stop offset="1" stop-color="#F7DD43" stop-opacity="0"/>
</linearGradient>
<linearGradient id="paint33_linear_175_190" x1="264.406" y1="1375.78" x2="264.406" y2="1893.75" gradientUnits="userSpaceOnUse">
<stop stop-color="#F7DD43"/>
<stop offset="1" stop-color="#F7DD43" stop-opacity="0"/>
</linearGradient>
<linearGradient id="paint34_linear_175_190" x1="264.406" y1="1375.78" x2="264.406" y2="1893.75" gradientUnits="userSpaceOnUse">
<stop stop-color="#F7DD43"/>
<stop offset="1" stop-color="#F7DD43" stop-opacity="0"/>
</linearGradient>
<linearGradient id="paint35_linear_175_190" x1="264.406" y1="1375.78" x2="264.406" y2="1893.75" gradientUnits="userSpaceOnUse">
<stop stop-color="#F7DD43"/>
<stop offset="1" stop-color="#F7DD43" stop-opacity="0"/>
</linearGradient>
<linearGradient id="paint36_linear_175_190" x1="264.406" y1="1375.78" x2="264.406" y2="1893.75" gradientUnits="userSpaceOnUse">
<stop stop-color="#F7DD43"/>
<stop offset="1" stop-color="#F7DD43" stop-opacity="0"/>
</linearGradient>
<linearGradient id="paint37_linear_175_190" x1="264.406" y1="1375.78" x2="264.406" y2="1893.75" gradientUnits="userSpaceOnUse">
<stop stop-color="#F7DD43"/>
<stop offset="1" stop-color="#F7DD43" stop-opacity="0"/>
</linearGradient>
<linearGradient id="paint38_linear_175_190" x1="264.406" y1="1375.78" x2="264.406" y2="1893.75" gradientUnits="userSpaceOnUse">
<stop stop-color="#F7DD43"/>
<stop offset="1" stop-color="#F7DD43" stop-opacity="0"/>
</linearGradient>
<linearGradient id="paint39_linear_175_190" x1="264.406" y1="1375.78" x2="264.406" y2="1893.75" gradientUnits="userSpaceOnUse">
<stop stop-color="#F7DD43"/>
<stop offset="1" stop-color="#F7DD43" stop-opacity="0"/>
</linearGradient>
<linearGradient id="paint40_linear_175_190" x1="264.406" y1="1375.78" x2="264.406" y2="1893.75" gradientUnits="userSpaceOnUse">
<stop stop-color="#F7DD43"/>
<stop offset="1" stop-color="#F7DD43" stop-opacity="0"/>
</linearGradient>
<linearGradient id="paint41_linear_175_190" x1="264.406" y1="1375.78" x2="264.406" y2="1893.75" gradientUnits="userSpaceOnUse">
<stop stop-color="#F7DD43"/>
<stop offset="1" stop-color="#F7DD43" stop-opacity="0"/>
</linearGradient>
<linearGradient id="paint42_linear_175_190" x1="264.406" y1="1375.78" x2="264.406" y2="1893.75" gradientUnits="userSpaceOnUse">
<stop stop-color="#F7DD43"/>
<stop offset="1" stop-color="#F7DD43" stop-opacity="0"/>
</linearGradient>
<linearGradient id="paint43_linear_175_190" x1="264.406" y1="1375.78" x2="264.406" y2="1893.75" gradientUnits="userSpaceOnUse">
<stop stop-color="#F7DD43"/>
<stop offset="1" stop-color="#F7DD43" stop-opacity="0"/>
</linearGradient>
<linearGradient id="paint44_linear_175_190" x1="264.406" y1="1375.78" x2="264.406" y2="1893.75" gradientUnits="userSpaceOnUse">
<stop stop-color="#F7DD43"/>
<stop offset="1" stop-color="#F7DD43" stop-opacity="0"/>
</linearGradient>
<linearGradient id="paint45_linear_175_190" x1="264.406" y1="1375.78" x2="264.406" y2="1893.75" gradientUnits="userSpaceOnUse">
<stop stop-color="#F7DD43"/>
<stop offset="1" stop-color="#F7DD43" stop-opacity="0"/>
</linearGradient>
<linearGradient id="paint46_linear_175_190" x1="264.406" y1="1375.78" x2="264.406" y2="1893.75" gradientUnits="userSpaceOnUse">
<stop stop-color="#F7DD43"/>
<stop offset="1" stop-color="#F7DD43" stop-opacity="0"/>
</linearGradient>
<linearGradient id="paint47_linear_175_190" x1="1293.12" y1="876.747" x2="1293.12" y2="1373.82" gradientUnits="userSpaceOnUse">
<stop stop-color="#F7DD43"/>
<stop offset="1" stop-color="#F7DD43" stop-opacity="0"/>
</linearGradient>
<linearGradient id="paint48_linear_175_190" x1="1293.12" y1="876.747" x2="1293.12" y2="1373.82" gradientUnits="userSpaceOnUse">
<stop stop-color="#F7DD43"/>
<stop offset="1" stop-color="#F7DD43" stop-opacity="0"/>
</linearGradient>
<linearGradient id="paint49_linear_175_190" x1="1293.12" y1="876.747" x2="1293.12" y2="1373.82" gradientUnits="userSpaceOnUse">
<stop stop-color="#F7DD43"/>
<stop offset="1" stop-color="#F7DD43" stop-opacity="0"/>
</linearGradient>
<linearGradient id="paint50_linear_175_190" x1="1293.12" y1="876.747" x2="1293.12" y2="1373.82" gradientUnits="userSpaceOnUse">
<stop stop-color="#F7DD43"/>
<stop offset="1" stop-color="#F7DD43" stop-opacity="0"/>
</linearGradient>
<linearGradient id="paint51_linear_175_190" x1="1293.12" y1="876.747" x2="1293.12" y2="1373.82" gradientUnits="userSpaceOnUse">
<stop stop-color="#F7DD43"/>
<stop offset="1" stop-color="#F7DD43" stop-opacity="0"/>
</linearGradient>
<linearGradient id="paint52_linear_175_190" x1="1293.12" y1="876.747" x2="1293.12" y2="1373.82" gradientUnits="userSpaceOnUse">
<stop stop-color="#F7DD43"/>
<stop offset="1" stop-color="#F7DD43" stop-opacity="0"/>
</linearGradient>
<linearGradient id="paint53_linear_175_190" x1="1293.12" y1="876.747" x2="1293.12" y2="1373.82" gradientUnits="userSpaceOnUse">
<stop stop-color="#F7DD43"/>
<stop offset="1" stop-color="#F7DD43" stop-opacity="0"/>
</linearGradient>
<linearGradient id="paint54_linear_175_190" x1="1293.12" y1="876.747" x2="1293.12" y2="1373.82" gradientUnits="userSpaceOnUse">
<stop stop-color="#F7DD43"/>
<stop offset="1" stop-color="#F7DD43" stop-opacity="0"/>
</linearGradient>
<linearGradient id="paint55_linear_175_190" x1="1293.12" y1="876.747" x2="1293.12" y2="1373.82" gradientUnits="userSpaceOnUse">
<stop stop-color="#F7DD43"/>
<stop offset="1" stop-color="#F7DD43" stop-opacity="0"/>
</linearGradient>
<linearGradient id="paint56_linear_175_190" x1="1293.12" y1="876.747" x2="1293.12" y2="1373.82" gradientUnits="userSpaceOnUse">
<stop stop-color="#F7DD43"/>
<stop offset="1" stop-color="#F7DD43" stop-opacity="0"/>
</linearGradient>
<linearGradient id="paint57_linear_175_190" x1="1293.12" y1="876.747" x2="1293.12" y2="1373.82" gradientUnits="userSpaceOnUse">
<stop stop-color="#F7DD43"/>
<stop offset="1" stop-color="#F7DD43" stop-opacity="0"/>
</linearGradient>
<linearGradient id="paint58_linear_175_190" x1="1293.12" y1="876.747" x2="1293.12" y2="1373.82" gradientUnits="userSpaceOnUse">
<stop stop-color="#F7DD43"/>
<stop offset="1" stop-color="#F7DD43" stop-opacity="0"/>
</linearGradient>
<linearGradient id="paint59_linear_175_190" x1="1293.12" y1="876.747" x2="1293.12" y2="1373.82" gradientUnits="userSpaceOnUse">
<stop stop-color="#F7DD43"/>
<stop offset="1" stop-color="#F7DD43" stop-opacity="0"/>
</linearGradient>
<linearGradient id="paint60_linear_175_190" x1="1293.12" y1="876.747" x2="1293.12" y2="1373.82" gradientUnits="userSpaceOnUse">
<stop stop-color="#F7DD43"/>
<stop offset="1" stop-color="#F7DD43" stop-opacity="0"/>
</linearGradient>
<linearGradient id="paint61_linear_175_190" x1="1293.12" y1="876.747" x2="1293.12" y2="1373.82" gradientUnits="userSpaceOnUse">
<stop stop-color="#F7DD43"/>
<stop offset="1" stop-color="#F7DD43" stop-opacity="0"/>
</linearGradient>
<linearGradient id="paint62_linear_175_190" x1="1293.12" y1="876.747" x2="1293.12" y2="1373.82" gradientUnits="userSpaceOnUse">
<stop stop-color="#F7DD43"/>
<stop offset="1" stop-color="#F7DD43" stop-opacity="0"/>
</linearGradient>
<linearGradient id="paint63_linear_175_190" x1="1293.12" y1="876.747" x2="1293.12" y2="1373.82" gradientUnits="userSpaceOnUse">
<stop stop-color="#F7DD43"/>
<stop offset="1" stop-color="#F7DD43" stop-opacity="0"/>
</linearGradient>
<linearGradient id="paint64_linear_175_190" x1="1293.12" y1="876.747" x2="1293.12" y2="1373.82" gradientUnits="userSpaceOnUse">
<stop stop-color="#F7DD43"/>
<stop offset="1" stop-color="#F7DD43" stop-opacity="0"/>
</linearGradient>
<linearGradient id="paint65_linear_175_190" x1="1293.12" y1="876.747" x2="1293.12" y2="1373.82" gradientUnits="userSpaceOnUse">
<stop stop-color="#F7DD43"/>
<stop offset="1" stop-color="#F7DD43" stop-opacity="0"/>
</linearGradient>
<linearGradient id="paint66_linear_175_190" x1="1293.12" y1="876.747" x2="1293.12" y2="1373.82" gradientUnits="userSpaceOnUse">
<stop stop-color="#F7DD43"/>
<stop offset="1" stop-color="#F7DD43" stop-opacity="0"/>
</linearGradient>
<linearGradient id="paint67_linear_175_190" x1="1293.12" y1="876.747" x2="1293.12" y2="1373.82" gradientUnits="userSpaceOnUse">
<stop stop-color="#F7DD43"/>
<stop offset="1" stop-color="#F7DD43" stop-opacity="0"/>
</linearGradient>
<linearGradient id="paint68_linear_175_190" x1="1293.12" y1="876.747" x2="1293.12" y2="1373.82" gradientUnits="userSpaceOnUse">
<stop stop-color="#F7DD43"/>
<stop offset="1" stop-color="#F7DD43" stop-opacity="0"/>
</linearGradient>
<linearGradient id="paint69_linear_175_190" x1="1293.12" y1="876.747" x2="1293.12" y2="1373.82" gradientUnits="userSpaceOnUse">
<stop stop-color="#F7DD43"/>
<stop offset="1" stop-color="#F7DD43" stop-opacity="0"/>
</linearGradient>
<linearGradient id="paint70_linear_175_190" x1="1293.12" y1="876.747" x2="1293.12" y2="1373.82" gradientUnits="userSpaceOnUse">
<stop stop-color="#F7DD43"/>
<stop offset="1" stop-color="#F7DD43" stop-opacity="0"/>
</linearGradient>
<linearGradient id="paint71_linear_175_190" x1="1293.12" y1="876.747" x2="1293.12" y2="1373.82" gradientUnits="userSpaceOnUse">
<stop stop-color="#F7DD43"/>
<stop offset="1" stop-color="#F7DD43" stop-opacity="0"/>
</linearGradient>
<linearGradient id="paint72_linear_175_190" x1="1293.12" y1="876.747" x2="1293.12" y2="1373.82" gradientUnits="userSpaceOnUse">
<stop stop-color="#F7DD43"/>
<stop offset="1" stop-color="#F7DD43" stop-opacity="0"/>
</linearGradient>
<linearGradient id="paint73_linear_175_190" x1="1293.12" y1="876.747" x2="1293.12" y2="1373.82" gradientUnits="userSpaceOnUse">
<stop stop-color="#F7DD43"/>
<stop offset="1" stop-color="#F7DD43" stop-opacity="0"/>
</linearGradient>
<linearGradient id="paint74_linear_175_190" x1="1293.12" y1="876.747" x2="1293.12" y2="1373.82" gradientUnits="userSpaceOnUse">
<stop stop-color="#F7DD43"/>
<stop offset="1" stop-color="#F7DD43" stop-opacity="0"/>
</linearGradient>
<linearGradient id="paint75_linear_175_190" x1="1293.12" y1="876.747" x2="1293.12" y2="1373.82" gradientUnits="userSpaceOnUse">
<stop stop-color="#F7DD43"/>
<stop offset="1" stop-color="#F7DD43" stop-opacity="0"/>
</linearGradient>
<linearGradient id="paint76_linear_175_190" x1="1293.12" y1="876.747" x2="1293.12" y2="1373.82" gradientUnits="userSpaceOnUse">
<stop stop-color="#F7DD43"/>
<stop offset="1" stop-color="#F7DD43" stop-opacity="0"/>
</linearGradient>
<linearGradient id="paint77_linear_175_190" x1="1293.12" y1="876.747" x2="1293.12" y2="1373.82" gradientUnits="userSpaceOnUse">
<stop stop-color="#F7DD43"/>
<stop offset="1" stop-color="#F7DD43" stop-opacity="0"/>
</linearGradient>
<linearGradient id="paint78_linear_175_190" x1="1293.12" y1="876.747" x2="1293.12" y2="1373.82" gradientUnits="userSpaceOnUse">
<stop stop-color="#F7DD43"/>
<stop offset="1" stop-color="#F7DD43" stop-opacity="0"/>
</linearGradient>
<linearGradient id="paint79_linear_175_190" x1="1293.12" y1="876.747" x2="1293.12" y2="1373.82" gradientUnits="userSpaceOnUse">
<stop stop-color="#F7DD43"/>
<stop offset="1" stop-color="#F7DD43" stop-opacity="0"/>
</linearGradient>
<linearGradient id="paint80_linear_175_190" x1="1293.12" y1="876.747" x2="1293.12" y2="1373.82" gradientUnits="userSpaceOnUse">
<stop stop-color="#F7DD43"/>
<stop offset="1" stop-color="#F7DD43" stop-opacity="0"/>
</linearGradient>
<linearGradient id="paint81_linear_175_190" x1="1293.12" y1="876.747" x2="1293.12" y2="1373.82" gradientUnits="userSpaceOnUse">
<stop stop-color="#F7DD43"/>
<stop offset="1" stop-color="#F7DD43" stop-opacity="0"/>
</linearGradient>
<linearGradient id="paint82_linear_175_190" x1="1293.12" y1="876.747" x2="1293.12" y2="1373.82" gradientUnits="userSpaceOnUse">
<stop stop-color="#F7DD43"/>
<stop offset="1" stop-color="#F7DD43" stop-opacity="0"/>
</linearGradient>
<linearGradient id="paint83_linear_175_190" x1="1293.12" y1="876.747" x2="1293.12" y2="1373.82" gradientUnits="userSpaceOnUse">
<stop stop-color="#F7DD43"/>
<stop offset="1" stop-color="#F7DD43" stop-opacity="0"/>
</linearGradient>
<linearGradient id="paint84_linear_175_190" x1="1293.12" y1="876.747" x2="1293.12" y2="1373.82" gradientUnits="userSpaceOnUse">
<stop stop-color="#F7DD43"/>
<stop offset="1" stop-color="#F7DD43" stop-opacity="0"/>
</linearGradient>
<linearGradient id="paint85_linear_175_190" x1="1293.12" y1="876.747" x2="1293.12" y2="1373.82" gradientUnits="userSpaceOnUse">
<stop stop-color="#F7DD43"/>
<stop offset="1" stop-color="#F7DD43" stop-opacity="0"/>
</linearGradient>
<linearGradient id="paint86_linear_175_190" x1="1293.12" y1="876.747" x2="1293.12" y2="1373.82" gradientUnits="userSpaceOnUse">
<stop stop-color="#F7DD43"/>
<stop offset="1" stop-color="#F7DD43" stop-opacity="0"/>
</linearGradient>
<linearGradient id="paint87_linear_175_190" x1="1293.12" y1="876.747" x2="1293.12" y2="1373.82" gradientUnits="userSpaceOnUse">
<stop stop-color="#F7DD43"/>
<stop offset="1" stop-color="#F7DD43" stop-opacity="0"/>
</linearGradient>
<linearGradient id="paint88_linear_175_190" x1="1293.12" y1="876.747" x2="1293.12" y2="1373.82" gradientUnits="userSpaceOnUse">
<stop stop-color="#F7DD43"/>
<stop offset="1" stop-color="#F7DD43" stop-opacity="0"/>
</linearGradient>
<linearGradient id="paint89_linear_175_190" x1="1293.12" y1="876.747" x2="1293.12" y2="1373.82" gradientUnits="userSpaceOnUse">
<stop stop-color="#F7DD43"/>
<stop offset="1" stop-color="#F7DD43" stop-opacity="0"/>
</linearGradient>
<linearGradient id="paint90_linear_175_190" x1="1293.12" y1="876.747" x2="1293.12" y2="1373.82" gradientUnits="userSpaceOnUse">
<stop stop-color="#F7DD43"/>
<stop offset="1" stop-color="#F7DD43" stop-opacity="0"/>
</linearGradient>
<linearGradient id="paint91_linear_175_190" x1="1293.12" y1="876.747" x2="1293.12" y2="1373.82" gradientUnits="userSpaceOnUse">
<stop stop-color="#F7DD43"/>
<stop offset="1" stop-color="#F7DD43" stop-opacity="0"/>
</linearGradient>
<linearGradient id="paint92_linear_175_190" x1="1293.12" y1="876.747" x2="1293.12" y2="1373.82" gradientUnits="userSpaceOnUse">
<stop stop-color="#F7DD43"/>
<stop offset="1" stop-color="#F7DD43" stop-opacity="0"/>
</linearGradient>
<linearGradient id="paint93_linear_175_190" x1="1293.12" y1="876.747" x2="1293.12" y2="1373.82" gradientUnits="userSpaceOnUse">
<stop stop-color="#F7DD43"/>
<stop offset="1" stop-color="#F7DD43" stop-opacity="0"/>
</linearGradient>
</defs>
</svg>
