<svg width="50" height="50" viewBox="0 0 50 50" fill="none" xmlns="http://www.w3.org/2000/svg">
<g clip-path="url(#clip0_404_140)">
<path d="M25 50C38.8071 50 50 38.8071 50 25C50 11.1929 38.8071 0 25 0C11.1929 0 0 11.1929 0 25C0 38.8071 11.1929 50 25 50Z" fill="#F0F0F0"/>
<path d="M50 25C50 11.193 38.807 0 25 0C20.1094 0 15.5474 1.40576 11.6941 3.83311L17.1739 6.16133L9.78259 9.30176L17.1739 12.4421L9.78259 15.5823L17.1739 18.7225L9.78259 21.8622L17.1739 25.0018L9.78259 28.142L17.1739 31.282L9.78259 34.4218L17.1739 37.5618L9.78259 40.7021L17.1739 43.8418L11.6966 46.1688C15.5494 48.5949 20.1103 50 25 50C38.807 50 50 38.807 50 25Z" fill="#751A46"/>
</g>
<defs>
<clipPath id="clip0_404_140">
<rect width="50" height="50" fill="white"/>
</clipPath>
</defs>
</svg>
